<?xml version="1.0" encoding="UTF-8"?>
<svg version="1.1" xmlns="http://www.w3.org/2000/svg" width="1536" height="1024">
<path d="M0 0 C506.88 0 1013.76 0 1536 0 C1536 337.92 1536 675.84 1536 1024 C1029.12 1024 522.24 1024 0 1024 C0 686.08 0 348.16 0 0 Z " fill="none" transform="translate(0,0)"/>
<path d="M0 0 C0.886875 0.2475 1.77375 0.495 2.6875 0.75 C4.99782541 8.20751552 1.47389465 13.65235831 -1.75 20.375 C-2.64284905 22.2888167 -3.52872266 24.20576142 -4.4140625 26.12306213 C-5.04408157 27.48721447 -5.67596204 28.85050847 -6.30957031 30.21299744 C-10.27139842 38.75556641 -13.97126591 47.41106037 -17.6875 56.0625 C-18.66885074 58.34237547 -19.65079006 60.62199428 -20.6335907 62.90124512 C-21.26308114 64.36337592 -21.89064917 65.82633604 -22.51618958 67.29016113 C-24.08933428 70.96258953 -25.69951355 74.61108275 -27.37988281 78.23583984 C-27.7108194 78.95982468 -28.04175598 79.68380951 -28.38272095 80.42973328 C-29.01049402 81.7990308 -29.64885273 83.16354429 -30.2996521 84.52204895 C-32.09104841 88.45760438 -32.34883178 90.60790263 -31.3125 94.75 C-30.3920842 94.75586624 -29.4716684 94.76173248 -28.52336121 94.76777649 C-19.85631399 94.82564037 -11.18952621 94.8976806 -2.52273083 94.98571491 C1.93315135 95.03047428 6.38894092 95.06971793 10.8449707 95.09643555 C15.14397199 95.12241328 19.44261796 95.16277588 23.74139977 95.21318626 C25.38282546 95.22989255 27.02431266 95.24138336 28.66581154 95.24761391 C30.96223981 95.25721446 33.25775131 95.28522314 35.55395508 95.31762695 C37.5158654 95.33428154 37.5158654 95.33428154 39.51741028 95.35127258 C42.6875 95.75 42.6875 95.75 44.69584656 96.83952332 C46.36900744 100.06296279 45.60922834 102.32782653 44.6875 105.75 C42.66473389 108.47410583 42.66473389 108.47410583 39.97167969 111.09936523 C39.48213303 111.58496918 38.99258636 112.07057312 38.48820496 112.57089233 C36.87530287 114.16440839 35.2425531 115.73588924 33.609375 117.30859375 C32.47782491 118.42130809 31.34782253 119.53559834 30.21929932 120.65138245 C27.24826302 123.58258327 24.2610025 126.49662164 21.26861572 129.40600586 C16.49057499 134.05456601 11.73239654 138.72321784 6.98423004 143.40226936 C5.33129705 145.02480472 3.66837265 146.63654153 2.00408936 148.24742126 C-6.73804319 156.77273998 -11.59518009 164.75821848 -16.0703125 176.1171875 C-16.50004364 177.19195343 -16.92977478 178.26671936 -17.37252808 179.37405396 C-18.27532859 181.63673044 -19.17436522 183.90091197 -20.06982422 186.16650391 C-21.43189633 189.61082977 -22.8067427 193.0498403 -24.18359375 196.48828125 C-25.06326085 198.69761388 -25.94219158 200.90723987 -26.8203125 203.1171875 C-27.22661896 204.13416718 -27.63292542 205.15114685 -28.05154419 206.19894409 C-34.72710358 222.43358035 -34.72710358 222.43358035 -32.8125 239.375 C-31.14118028 243.17128337 -29.2542451 246.85164972 -27.37158203 250.54589844 C-23.67755047 257.79771328 -20.46593615 264.86162337 -18.3125 272.75 C-17.97605469 273.97203125 -17.97605469 273.97203125 -17.6328125 275.21875 C-13.18955146 293.96565958 -17.82193022 313.39043785 -27.0625 329.875 C-30.52468184 335.40561355 -34.74875462 340.10770478 -39.3125 344.75 C-39.92738281 345.37777344 -40.54226563 346.00554687 -41.17578125 346.65234375 C-53.05046972 357.86591466 -70.56246573 365.83886524 -86.97998047 365.76855469 C-87.79111298 365.76587585 -88.60224548 365.76319702 -89.43795776 365.76043701 C-90.0565567 365.7569928 -90.67515564 365.75354858 -91.3125 365.75 C-86.96984602 353.18684813 -82.30528457 340.7677601 -77.5 328.375 C-76.47996971 325.73849532 -75.46064018 323.10172196 -74.44197083 320.46469116 C-73.81520265 318.84277073 -73.18754982 317.22119181 -72.55888367 315.6000061 C-69.03327874 306.89910332 -69.03327874 306.89910332 -69.9375 297.7265625 C-73.27979195 290.91142032 -79.33260172 289.00585203 -86.14550781 286.54150391 C-88.52613828 285.67196763 -90.88311265 284.75057379 -93.2421875 283.82421875 C-94.93156823 283.17260047 -96.62166745 282.52284172 -98.3125 281.875 C-99.11316895 281.56425537 -99.91383789 281.25351074 -100.73876953 280.93334961 C-105.05501593 279.33028899 -108.63619664 278.21576356 -113.3125 278.75 C-119.59551957 282.14283057 -123.10381336 286.59850307 -125.72265625 293.16015625 C-126.15022217 294.22000732 -126.57778809 295.2798584 -127.01831055 296.37182617 C-127.68987183 298.07495972 -127.68987183 298.07495972 -128.375 299.8125 C-129.08039917 301.57267456 -129.08039917 301.57267456 -129.80004883 303.3684082 C-131.3147966 307.15816407 -132.81540675 310.95325047 -134.3125 314.75 C-134.84008027 316.08499611 -135.36775015 317.41995682 -135.89550781 318.75488281 C-139.05292446 326.74608244 -142.19087896 334.74474383 -145.3125 342.75 C-145.9725 342.75 -146.6325 342.75 -147.3125 342.75 C-162.72650825 325.60937169 -168.42041951 305.50179892 -167.76171875 282.875 C-166.66103746 262.94557734 -156.63585742 246.29697692 -142.4921875 232.62109375 C-133.35977849 224.78162437 -122.20695104 219.37482826 -110.6875 216.1015625 C-109.68041992 215.81410156 -108.67333984 215.52664063 -107.63574219 215.23046875 C-105.63793865 214.67435947 -103.63340022 214.14172221 -101.62207031 213.63671875 C-92.97263052 211.25923171 -87.15034637 207.39275175 -82.41699219 199.64892578 C-80.50905757 195.97890892 -78.76491004 192.26795861 -77.0625 188.5 C-76.42679867 187.13334267 -75.78923478 185.76755033 -75.14990234 184.40258789 C-73.83872344 181.59468591 -72.54013497 178.78145576 -71.25097656 175.96337891 C-69.36901066 171.85713155 -67.43541445 167.7767444 -65.4921875 163.69921875 C-64.59303544 161.80262784 -63.69527272 159.90538946 -62.79846191 158.00769043 C-61.95494159 156.22437389 -61.10787869 154.44273439 -60.26074219 152.66113281 C-59.75446289 151.57541992 -59.24818359 150.48970703 -58.7265625 149.37109375 C-58.2826416 148.4267749 -57.8387207 147.48245605 -57.38134766 146.50952148 C-56.24268658 143.56975764 -55.64362411 140.88214075 -55.3125 137.75 C-57.16322424 135.89927576 -60.20648745 136.62497189 -62.68066406 136.62402344 C-63.34577499 136.6221553 -64.01088593 136.62028717 -64.69615173 136.61836243 C-66.14540467 136.61434938 -67.59466398 136.61228276 -69.04392242 136.61190033 C-72.12502307 136.60849398 -75.20591095 136.58713996 -78.28693771 136.56666946 C-84.02807047 136.52860962 -89.76898075 136.49738243 -95.51025391 136.49951172 C-99.49932496 136.50029925 -103.48762429 136.47691439 -107.47649384 136.4376297 C-108.99625936 136.42717008 -110.51611397 136.42564549 -112.0358963 136.43328094 C-114.16702977 136.44291631 -116.2958345 136.42170007 -118.42675781 136.39355469 C-119.63841614 136.38990906 -120.85007446 136.38626343 -122.09844971 136.38250732 C-126.27682412 135.56022635 -127.83371126 134.17372095 -130.3125 130.75 C-130.118622 126.1343071 -128.10306276 124.04711649 -124.91146851 120.87467957 C-124.45002807 120.410527 -123.98858764 119.94637443 -123.51316416 119.46815664 C-121.96651616 117.91726634 -120.40602872 116.38110549 -118.84521484 114.84448242 C-117.73242057 113.73445408 -116.6205138 112.62353542 -115.50942993 111.51179504 C-112.48897244 108.49446327 -109.45641148 105.48956277 -106.42171049 102.48656631 C-103.24379723 99.33740658 -100.0776218 96.17649242 -96.91030884 93.01667786 C-90.90218467 87.02615982 -84.88437019 81.04548002 -78.86265814 75.06862384 C-70.04495958 66.31593541 -61.23966762 57.55077995 -52.43697548 48.7830019 C-51.78961917 48.138215 -51.14226287 47.49342811 -50.4752897 46.82910222 C-49.18356132 45.54247315 -47.89186646 44.25581044 -46.60020602 42.96911317 C-42.8313747 39.21547727 -39.05901687 35.46543217 -35.28352809 31.71849287 C-32.92611784 29.37819779 -30.57072945 27.03587476 -28.21572495 24.6931591 C-27.129502 23.6135564 -26.04238688 22.53485042 -24.95427704 21.45714951 C-19.6883446 16.24095153 -14.49869944 11.00821312 -9.69870949 5.35319996 C-4.75946895 -0.3592052 -4.75946895 -0.3592052 0 0 Z " fill="#141514" transform="translate(372.3125,296.25)"/>
<path d="M0 0 C9.79275453 7.14606411 15.87162288 17.93217703 18.8125 29.59765625 C21.36869174 46.11644249 18.19424463 63.15295212 8.41015625 76.80859375 C1.69788398 84.9311212 -7.29426902 90.60064148 -17.7734375 92.2734375 C-30.3924419 93.4570706 -41.41205039 92.10765703 -51.7734375 84.2734375 C-53.0934375 83.2834375 -54.4134375 82.2934375 -55.7734375 81.2734375 C-55.7734375 95.4634375 -55.7734375 109.6534375 -55.7734375 124.2734375 C-63.3634375 124.2734375 -70.9534375 124.2734375 -78.7734375 124.2734375 C-78.7734375 81.7034375 -78.7734375 39.1334375 -78.7734375 -4.7265625 C-71.1834375 -4.7265625 -63.5934375 -4.7265625 -55.7734375 -4.7265625 C-55.4434375 -1.4265625 -55.1134375 1.8734375 -54.7734375 5.2734375 C-53.6390625 4.2009375 -52.5046875 3.1284375 -51.3359375 2.0234375 C-37.00999719 -10.54674813 -15.5820034 -9.70034578 0 0 Z " fill="#141514" transform="translate(885.7734375,432.7265625)"/>
<path d="M0 0 C0.73871338 0.00491455 1.47742676 0.0098291 2.23852539 0.01489258 C15.19030985 0.28896724 27.3127268 4.36814143 36.87109375 13.30859375 C47.82477246 24.99099953 51.29715642 38.22477496 51.02734375 53.87890625 C50.45115145 67.22879449 43.99141807 79.10108143 34.4375 88.203125 C21.85502939 98.07890135 7.40806422 100.77211913 -8.25 99.3125 C-21.66067846 96.77729118 -32.95860987 90.01487637 -40.97265625 78.9296875 C-48.63092045 66.92484091 -51.39934823 51.93642125 -48.56640625 37.93359375 C-44.94717849 25.21373518 -38.3874054 14.19680748 -26.83984375 7.265625 C-18.00998448 2.57564761 -9.98796408 -0.07968199 0 0 Z " fill="#141515" transform="translate(1173.25,425.6875)"/>
<path d="M0 0 C9.65434188 7.60279423 15.74195233 18.01721008 18.5 29.96875 C19.98692784 45.65297918 18.01318163 60.02223966 8.5 72.96875 C-1.4560084 83.99385997 -13.56124026 89.14296979 -28.27734375 90.25390625 C-43.86200248 90.61781199 -56.87403237 86.2259402 -68.2421875 75.41015625 C-78.83816281 63.95257049 -81.4126544 49.84042771 -80.8828125 34.72265625 C-80.11871747 22.53798364 -74.40115431 10.91210415 -65.48046875 2.5625 C-46.69601165 -12.55398619 -19.88462985 -13.64178094 0 0 Z " fill="#141515" transform="translate(1092.5,435.03125)"/>
<path d="M0 0 C0.83660156 0.40863281 1.67320312 0.81726563 2.53515625 1.23828125 C12.58245804 6.51515683 19.56568887 14.03486689 23.4921875 24.8203125 C24.27050626 28.1610961 24.57452985 31.5962388 25 35 C17.08 35 9.16 35 1 35 C-0.65 31.7 -2.3 28.4 -4 25 C-9.04677941 19.609122 -14.72333693 17.41132596 -21.96484375 16.71484375 C-29.83597855 16.48655106 -35.82358361 17.22908357 -41.9375 22.5625 C-45.48778491 26.75829126 -45.3466537 29.93416068 -45.26953125 35.3046875 C-44.89109599 39.08904015 -43.92946592 40.58319061 -41 43 C-33.1606923 47.68446436 -24.54196432 49.05780603 -15.71044922 50.85180664 C-1.05936145 53.85720323 13.44800058 57.67394059 22.4375 70.5625 C28.22610668 79.55050753 28.42566549 90.69944452 26.41796875 100.98046875 C22.51478333 112.1909876 12.79475232 120.22072615 2.421875 125.25 C-13.75722712 131.47938691 -35.51016219 129.82400403 -51.1875 122.875 C-62.26837927 116.80303852 -68.81172314 108.51839937 -72.8046875 96.59765625 C-73.70333079 93.29237237 -74 90.43895394 -74 87 C-66.08 87 -58.16 87 -50 87 C-47.525 91.95 -47.525 91.95 -45 97 C-38.41628701 103.83215499 -30.44866102 107.04635558 -20.9375 107.3125 C-14.28366533 107.23233332 -7.39671336 105.9458222 -2.234375 101.46875 C1.9281621 96.58853409 2.43016502 92.93799246 2.32421875 86.6953125 C2.16888357 83.81389548 2.16888357 83.81389548 0.1875 81.0625 C-9.27957215 74.93674743 -20.82925299 73.41174365 -31.70507812 71.2890625 C-44.52904385 68.68649008 -57.51913889 64.82801461 -65.4375 53.625 C-70.64701676 44.88835999 -72.34556916 36.47912194 -70.53125 26.39453125 C-67.88181096 16.22257779 -61.6767564 7.90019435 -53 2 C-37.3160369 -5.49779019 -15.99395696 -7.90741232 0 0 Z " fill="#141514" transform="translate(551,397)"/>
<path d="M0 0 C0.82741699 0.00563965 1.65483398 0.0112793 2.50732422 0.01708984 C14.26857297 0.24869174 23.69604121 2.79026663 32.43359375 10.94140625 C39.01109827 18.0109934 41.81890407 26.40553719 41.80102539 35.91699219 C41.80117142 36.57106552 41.80131744 37.22513885 41.8014679 37.89903259 C41.80077341 40.05251426 41.79300283 42.20590852 41.78515625 44.359375 C41.78329042 45.85581414 41.78186729 47.35225388 41.78086853 48.84869385 C41.77705635 52.78108415 41.76723717 56.71343732 41.75616455 60.64581299 C41.74592249 64.66100563 41.74136492 68.6762043 41.73632812 72.69140625 C41.72561372 80.56512307 41.70802745 88.43880264 41.6875 96.3125 C34.4275 96.3125 27.1675 96.3125 19.6875 96.3125 C19.1925 92.3525 19.1925 92.3525 18.6875 88.3125 C17.2334375 89.67375 17.2334375 89.67375 15.75 91.0625 C6.14258779 99.3057766 -5.08066681 100.02562508 -17.23876953 99.49169922 C-25.13111422 98.80969062 -32.81189271 94.98772974 -38.3125 89.3125 C-43.89943294 81.30131187 -45.18852528 73.99744616 -44.3125 64.3125 C-42.03907284 56.05897096 -36.96580036 50.77847166 -29.67675781 46.51000977 C-21.23619687 42.23481858 -11.23665176 41.34037795 -1.97558594 39.94995117 C0.21268386 39.62121674 2.399342 39.28303652 4.5859375 38.94335938 C15.20622127 37.3125 15.20622127 37.3125 18.6875 37.3125 C17.97287248 29.96633509 17.97287248 29.96633509 13.75 24.25 C9.28047961 21.42234424 6.08915435 21.12913456 0.875 21.0625 C-0.32769531 21.03671875 -1.53039062 21.0109375 -2.76953125 20.984375 C-7.93302534 21.46258173 -11.16052791 23.03599038 -14.625 26.875 C-16.30366117 29.1769712 -16.30366117 29.1769712 -17.3125 31.3125 C-24.9025 31.3125 -32.4925 31.3125 -40.3125 31.3125 C-40.3125 22.62023199 -38.01566224 16.9071421 -32.125 10.5 C-23.14741653 2.24296011 -11.84263051 -0.08523382 0 0 Z " fill="#131514" transform="translate(743.3125,425.6875)"/>
<path d="M0 0 C8.04649955 5.65393573 12.19240551 13.09868738 14.5390625 22.52734375 C14.77957153 25.95066833 14.77957153 25.95066833 14.76611328 29.56420898 C14.76640533 30.22847397 14.76669739 30.89273895 14.76699829 31.57713318 C14.76561813 33.74687307 14.75011999 35.91625849 14.734375 38.0859375 C14.73064018 39.60050774 14.72779542 41.1150804 14.72579956 42.62965393 C14.71820001 46.59657581 14.69858357 50.5633489 14.6763916 54.5302124 C14.65585351 58.58587634 14.64678088 62.64156456 14.63671875 66.69726562 C14.6153338 74.64070055 14.5801821 82.58398644 14.5390625 90.52734375 C6.9490625 90.52734375 -0.6409375 90.52734375 -8.4609375 90.52734375 C-8.47552002 88.84777588 -8.49010254 87.16820801 -8.50512695 85.43774414 C-8.55699578 79.85766408 -8.62233873 74.27784787 -8.69665241 68.69802189 C-8.74117779 65.31848141 -8.78047156 61.93905653 -8.80737305 58.55932617 C-8.84106865 54.66425764 -8.89339455 50.76980672 -8.94921875 46.875 C-8.95560867 45.67464615 -8.9619986 44.4742923 -8.96858215 43.23756409 C-9.1088013 35.15839445 -9.59601895 27.97993789 -14.8984375 21.58984375 C-19.47283865 17.90800868 -22.47417123 17.23381152 -28.3984375 17.21484375 C-29.60371094 17.19808594 -30.80898438 17.18132812 -32.05078125 17.1640625 C-35.68769965 17.55150054 -37.47683393 18.50413221 -40.4609375 20.52734375 C-41.1209375 20.52734375 -41.7809375 20.52734375 -42.4609375 20.52734375 C-47.277787 29.89893406 -49.05903246 38.10885413 -49.0703125 48.6328125 C-49.08684875 49.83803055 -49.10338501 51.0432486 -49.12042236 52.2849884 C-49.16860193 56.09499358 -49.19020739 59.90460048 -49.2109375 63.71484375 C-49.23912215 66.31447284 -49.26905303 68.91408362 -49.30078125 71.51367188 C-49.37435339 77.85152968 -49.42411165 84.18917025 -49.4609375 90.52734375 C-57.0509375 90.52734375 -64.6409375 90.52734375 -72.4609375 90.52734375 C-72.4609375 59.50734375 -72.4609375 28.48734375 -72.4609375 -3.47265625 C-64.8709375 -3.47265625 -57.2809375 -3.47265625 -49.4609375 -3.47265625 C-49.1309375 -0.50265625 -48.8009375 2.46734375 -48.4609375 5.52734375 C-47.92726563 5.0684375 -47.39359375 4.60953125 -46.84375 4.13671875 C-32.89381698 -7.35146138 -15.86581867 -9.49430736 0 0 Z " fill="#141515" transform="translate(667.4609375,431.47265625)"/>
<path d="M0 0 C9.35941019 6.39878044 12.38387716 12.41938581 14.625 23.625 C7.365 23.625 0.105 23.625 -7.375 23.625 C-8.365 21.645 -9.355 19.665 -10.375 17.625 C-15.32270783 12.99649913 -20.98612108 13.33922057 -27.45703125 13.41015625 C-31.11432591 13.67943497 -33.42554571 14.43181604 -36.375 16.625 C-39.0177362 19.69398398 -39.375 21.17058847 -39.375 25.25 C-38.71560657 28.69112989 -38.71560657 28.69112989 -36.27441406 30.23291016 C-32.90976998 31.84836995 -29.62555561 32.60851432 -25.984375 33.2734375 C-24.53770302 33.55960581 -23.09109028 33.84607376 -21.64453125 34.1328125 C-19.39014255 34.56794717 -17.13497513 34.99812682 -14.87841797 35.421875 C4.7529728 39.14232282 4.7529728 39.14232282 11.5 46.4375 C15.99746718 53.18370077 17.71141914 59.50670312 16.625 67.625 C14.18973562 76.91647026 10.53185016 83.0432394 2.3515625 88.19921875 C-10.42674718 94.88128613 -25.0894251 95.5355246 -38.875 92 C-47.7209911 89.10882172 -55.20091938 84.51878967 -60.375 76.625 C-62.62579693 72.15750912 -63.43354773 68.62210032 -63.375 63.625 C-59.95897985 63.45053066 -56.54410363 63.34410377 -53.125 63.25 C-52.15691406 63.19972656 -51.18882813 63.14945312 -50.19140625 63.09765625 C-47.46352193 63.04121726 -45.04511886 63.05572018 -42.375 63.625 C-39.859375 66.53515625 -39.859375 66.53515625 -38.375 69.625 C-31.67235002 74.48442123 -24.39048012 74.16955586 -16.375 73.625 C-11.88110498 72.63016828 -9.01344011 71.58266016 -6.375 67.625 C-5.875 64.125 -5.875 64.125 -6.375 60.625 C-12.41892776 54.94943804 -22.00708988 54.48260422 -29.875 53.1875 C-40.83222635 51.34200896 -51.93703908 48.81371907 -58.9765625 39.5078125 C-63.05880636 32.55203386 -63.48946485 25.51686083 -62.375 17.625 C-59.91034833 9.64474018 -54.96668456 3.13251568 -47.62109375 -0.87890625 C-33.10936093 -7.66135395 -14.11512626 -8.25552588 0 0 Z " fill="#141514" transform="translate(1344.375,431.375)"/>
<path d="M0 0 C33.66 0 67.32 0 102 0 C102 6.93 102 13.86 102 21 C89.13 21 76.26 21 63 21 C63 55.98 63 90.96 63 127 C55.08 127 47.16 127 39 127 C39 92.02 39 57.04 39 21 C26.13 21 13.26 21 0 21 C0 14.07 0 7.14 0 0 Z " fill="#151616" transform="translate(915,396)"/>
<path d="M0 0 C7.59 0 15.18 0 23 0 C23 42.9 23 85.8 23 130 C15.41 130 7.82 130 0 130 C0 87.1 0 44.2 0 0 Z " fill="#121413" transform="translate(1241,392)"/>
<path d="M0 0 C5.99436155 4.52792975 9.61063421 11.42181918 11.0703125 18.75 C11.67818081 27.56409043 9.73404129 35.79170463 4.0703125 42.75 C-2.59584163 49.11988061 -10.3244501 52.24717734 -19.5546875 52.08984375 C-27.09896781 51.0103168 -34.48691965 47.49348431 -39.52734375 41.73828125 C-45.34935039 33.4836813 -46.1351842 24.65000834 -44.9296875 14.75 C-42.56621048 6.55951742 -37.32327342 0.96320012 -30.09375 -3.34375 C-19.94435912 -7.96878888 -8.99453858 -5.82642175 0 0 Z " fill="#F7F7F7" transform="translate(1023.9296875,586.25)"/>
<path d="M0 0 C7.15848021 7.54542509 10.80330004 16.44045836 10.56640625 26.81640625 C9.72190604 35.53424684 6.50041849 42.64066214 0.0625 48.625 C-5.53686589 53.16406043 -11.25777967 54.99916755 -18.45703125 54.7265625 C-25.22042175 53.85004604 -31.94461808 50.75783075 -36.3203125 45.4609375 C-42.5586165 36.69114782 -43.69495233 28.03487827 -42.6875 17.4375 C-40.81339112 9.45850951 -36.47690162 2.642506 -29.62109375 -1.9453125 C-19.90857734 -6.91450694 -9.18787166 -5.34178585 0 0 Z " fill="#F7F7F7" transform="translate(1190.6875,450.5625)"/>
<path d="M0 0 C6.02094448 3.83564894 10.01302597 8.55116616 12.41015625 15.30859375 C14.3174307 24.05026829 14.66779426 35.3824515 10.06640625 43.31640625 C5.57272399 49.49645934 1.23023506 53.73856967 -6.18359375 56.00390625 C-15.03339953 57.009566 -21.38906203 56.48942714 -28.93359375 51.31640625 C-35.38899858 45.59487902 -38.45378116 38.32329077 -39.13671875 29.7734375 C-39.29814178 20.66648822 -37.8159846 12.54334358 -31.93359375 5.31640625 C-23.13194934 -3.28520079 -11.19604225 -5.74823636 0 0 Z " fill="#F7F7F7" transform="translate(867.93359375,448.68359375)"/>
<path d="M0 0 C5.59118481 4.06096581 9.19215443 10.05616026 11.2265625 16.6171875 C11.65330174 19.56744941 11.70413397 22.45209318 11.6640625 25.4296875 C11.65576416 26.22286377 11.64746582 27.01604004 11.63891602 27.83325195 C11.40399543 36.0019674 9.60773135 42.25028836 4.1640625 48.4921875 C-1.00124486 53.18086778 -7.89482377 55.68161154 -14.8359375 56.1171875 C-22.63549986 55.12676688 -28.96254112 52.48069625 -34.3046875 46.609375 C-38.01628297 41.57503008 -40.26430176 35.85410036 -40.7734375 29.6171875 C-40.86818359 28.52664063 -40.86818359 28.52664063 -40.96484375 27.4140625 C-41.37256516 19.04919742 -39.2292114 11.28974697 -33.9609375 4.6796875 C-25.02523747 -4.72987541 -11.17957041 -6.28185385 0 0 Z " fill="#F7F7F7" transform="translate(1075.7734375,449.3828125)"/>
<path d="M0 0 C4.33488367 3.02433744 7.76002608 6.89073924 9.6875 11.875 C10.48971463 19.67759286 11.18260651 27.91251201 6.1171875 34.39453125 C1.4320619 39.24606842 -1.47766122 40.63876343 -8.0625 41.1875 C-12.80159577 41.16077578 -16.31138475 39.25864313 -20.3125 36.875 C-20.3125 36.215 -20.3125 35.555 -20.3125 34.875 C-20.9725 34.875 -21.6325 34.875 -22.3125 34.875 C-22.3125 42.135 -22.3125 49.395 -22.3125 56.875 C-24.6225 56.875 -26.9325 56.875 -29.3125 56.875 C-29.3125 38.065 -29.3125 19.255 -29.3125 -0.125 C-27.0025 -0.125 -24.6925 -0.125 -22.3125 -0.125 C-21.9825 1.195 -21.6525 2.515 -21.3125 3.875 C-20.549375 3.235625 -19.78625 2.59625 -19 1.9375 C-13.45964225 -2.31440246 -6.44814594 -2.18993636 0 0 Z " fill="#121313" transform="translate(1304.3125,597.125)"/>
<path d="M0 0 C5.40080805 3.13202598 8.63563947 7.45073693 10.625 13.375 C11.37877055 19.92399345 11.18915104 26.65985254 7.625 32.375 C3.64118017 36.79162989 -0.61950227 39.95772247 -6.625 40.625 C-12.740503 40.92331722 -17.37776157 40.00328447 -22.375 36.375 C-26.3650874 32.57781759 -29.16270063 28.66342178 -29.67578125 23.1328125 C-29.67964844 21.93398438 -29.68351563 20.73515625 -29.6875 19.5 C-29.70425781 18.30632813 -29.72101562 17.11265625 -29.73828125 15.8828125 C-29.20123553 10.69714518 -27.20738265 6.77226294 -23.5 3.125 C-23.02820313 2.64546875 -22.55640625 2.1659375 -22.0703125 1.671875 C-15.88226595 -3.06183803 -6.93586682 -3.15864903 0 0 Z " fill="#131414" transform="translate(869.375,597.625)"/>
<path d="M0 0 C5.53257194 2.52436743 9.14977596 6.10184057 11.7890625 11.640625 C13.7971141 17.66477981 13.73040627 24.82987593 11.1796875 30.6875 C8.1838546 35.83088337 3.27353415 39.44788445 -2.3203125 41.3125 C-9.16320831 42.053915 -14.6690794 41.40303621 -20.3203125 37.3125 C-24.57801787 33.35814259 -26.98903598 29.0359417 -27.69140625 23.26171875 C-27.84109498 15.90936059 -27.35079119 10.8790133 -22.3203125 5.3125 C-15.76291871 -0.76508449 -8.73809971 -2.58906658 0 0 Z " fill="#111111" transform="translate(655.3203125,596.6875)"/>
<path d="M0 0 C5.53257194 2.52436743 9.14977596 6.10184057 11.7890625 11.640625 C13.81853538 17.72904363 13.734372 24.87702481 11.0546875 30.75 C8.28245639 35.4452224 4.83732528 38.30560237 -0.1328125 40.625 C-6.8914734 42.08275039 -12.41006295 42.03281996 -18.53125 38.58203125 C-22.96174921 35.43811806 -25.60606182 31.45525204 -27.3203125 26.3125 C-28.19182697 18.96543034 -27.88589886 12.34859731 -23.3203125 6.3125 C-16.77828512 -0.52689226 -9.1844123 -2.72130735 0 0 Z " fill="#0F0F0F" transform="translate(820.3203125,596.6875)"/>
<path d="M0 0 C2.31 0 4.62 0 7 0 C11.72055813 9.81893733 15.64696429 19.96193125 19.64038086 30.09155273 C20.82267239 33.08828377 22.01167608 36.08229421 23.20117188 39.07617188 C23.95352698 40.97900778 24.70549452 42.88199698 25.45703125 44.78515625 C25.81320023 45.68089859 26.1693692 46.57664093 26.53633118 47.49952698 C27.02265266 48.73738197 27.02265266 48.73738197 27.51879883 50.00024414 C27.80572098 50.72651505 28.09264313 51.45278595 28.38825989 52.20106506 C29 54 29 54 29 56 C26.36 56 23.72 56 21 56 C20.16235732 54.04350603 19.33000941 52.08474444 18.5 50.125 C18.0359375 49.03445313 17.571875 47.94390625 17.09375 46.8203125 C16 44 16 44 16 42 C7.75 42 -0.5 42 -9 42 C-9.99 45.3 -10.98 48.6 -12 52 C-12.66 53.32 -13.32 54.64 -14 56 C-16.64 56 -19.28 56 -22 56 C-19.87235931 49.33279266 -17.41809899 42.83817423 -14.8046875 36.34765625 C-14.21531906 34.87564003 -14.21531906 34.87564003 -13.61404419 33.37388611 C-12.78997294 31.31704795 -11.96466864 29.26070341 -11.13818359 27.20483398 C-9.86935083 24.04844696 -8.60427897 20.89057278 -7.33984375 17.73242188 C-6.53667463 15.72907994 -5.73329672 13.72582169 -4.9296875 11.72265625 C-4.55053192 10.77689224 -4.17137634 9.83112823 -3.7807312 8.85670471 C-3.43011627 7.98497116 -3.07950134 7.11323761 -2.71826172 6.21508789 C-2.25551346 5.06333824 -2.25551346 5.06333824 -1.78341675 3.88832092 C-1.23699179 2.5712369 -0.63769751 1.27539501 0 0 Z " fill="#0E0E0E" transform="translate(502,581)"/>
<path d="M0 0 C5.99436155 4.52792975 9.61063421 11.42181918 11.0703125 18.75 C11.67818081 27.56409043 9.73404129 35.79170463 4.0703125 42.75 C-2.59584163 49.11988061 -10.3244501 52.24717734 -19.5546875 52.08984375 C-27.09896781 51.0103168 -34.48691965 47.49348431 -39.52734375 41.73828125 C-45.34935039 33.4836813 -46.1351842 24.65000834 -44.9296875 14.75 C-42.56621048 6.55951742 -37.32327342 0.96320012 -30.09375 -3.34375 C-19.94435912 -7.96878888 -8.99453858 -5.82642175 0 0 Z M-33.1796875 8 C-37.13805414 14.22029043 -39.03618542 20.35658205 -37.9296875 27.75 C-35.82511059 35.31645507 -31.67999067 39.89392929 -25.0390625 43.88671875 C-20.25941946 45.84283192 -14.50413754 45.51280001 -9.609375 44.0625 C-3.85186177 41.43549777 -0.40684055 37.77464673 2.3828125 32.0625 C4.08501318 23.86098762 3.70335355 17.30343131 -0.4296875 9.91796875 C-3.22154179 5.88286685 -6.20670391 3.32432786 -10.9296875 1.75 C-20.27121401 0.97995525 -26.3746918 1.1950043 -33.1796875 8 Z " fill="#111212" transform="translate(1023.9296875,586.25)"/>
<path d="M0 0 C5.96940626 2.76112986 8.77600355 6.40747585 11.7109375 12.27734375 C11.7109375 15.57734375 11.7109375 18.87734375 11.7109375 22.27734375 C1.8109375 22.27734375 -8.0890625 22.27734375 -18.2890625 22.27734375 C-16.91434567 28.84461467 -16.91434567 28.84461467 -14.2890625 31.71484375 C-9.96343911 33.9677726 -6.06647408 34.21870564 -1.2890625 33.27734375 C1.79892424 31.02676808 1.79892424 31.02676808 3.7109375 28.27734375 C4.7109375 27.27734375 4.7109375 27.27734375 8.2734375 27.21484375 C9.4078125 27.23546875 10.5421875 27.25609375 11.7109375 27.27734375 C11.29333767 32.0101418 9.25176637 35.21975455 5.7109375 38.27734375 C0.46575079 41.33989285 -5.31744315 42.20649431 -11.2890625 41.27734375 C-17.19117121 39.39843504 -20.8386448 36.35148742 -24.2890625 31.27734375 C-27.05053109 25.49140957 -27.31432639 18.95897319 -25.6015625 12.80859375 C-23.17786926 6.74936064 -20.04333227 3.47250562 -14.3984375 0.171875 C-9.86681855 -1.74986711 -4.64370415 -1.46601581 0 0 Z " fill="#0F1010" transform="translate(1112.2890625,596.72265625)"/>
<path d="M0 0 C3.40920514 2.411389 5.69634878 5.08019755 7.5625 8.8125 C7.64836809 11.13666296 7.66961043 13.46333307 7.66015625 15.7890625 C7.6587413 16.47431 7.65732635 17.1595575 7.65586853 17.86557007 C7.65026675 20.05625761 7.63771406 22.2468433 7.625 24.4375 C7.61998522 25.92187352 7.61542228 27.40624865 7.61132812 28.890625 C7.60029677 32.53128315 7.58303099 36.17188164 7.5625 39.8125 C5.2525 39.8125 2.9425 39.8125 0.5625 39.8125 C0.2325 38.8225 -0.0975 37.8325 -0.4375 36.8125 C-1.035625 37.286875 -1.63375 37.76125 -2.25 38.25 C-6.86300292 41.54500208 -11.97790617 41.4247909 -17.4375 40.8125 C-21.8500235 38.6463521 -24.52808512 36.37388 -26.4375 31.8125 C-27.01370227 28.35528638 -27.06815384 26.03671039 -25.44140625 22.87890625 C-22.7240339 19.17619776 -20.2426015 17.39246318 -15.75 16.375 C-10.32812467 15.60751993 -4.90112216 15.62553194 0.5625 15.8125 C-0.46389929 10.74101458 -0.46389929 10.74101458 -3.625 6.8125 C-7.32412733 5.49725473 -9.66225194 5.83373198 -13.4375 6.8125 C-15.49688216 8.39135966 -16.28321211 9.50392423 -17.4375 11.8125 C-19.7475 11.8125 -22.0575 11.8125 -24.4375 11.8125 C-24.16440064 7.89807587 -23.68757787 6.1098899 -21.125 3.0625 C-14.8132359 -2.22176762 -7.7472428 -2.67632024 0 0 Z " fill="#181919" transform="translate(1257.4375,597.1875)"/>
<path d="M0 0 C0.39446432 7.36333395 -0.48877095 12.93072005 -5.25 18.75 C-12.49302451 24.67611096 -19.06911221 26.3639964 -28.3359375 26.2890625 C-32.0810347 25.88270298 -34.22637217 24.48915318 -37 22 C-39.46039412 18.30940882 -39.79633472 15.28344256 -39 11 C-35.17635151 5.62299431 -29.62344672 3.71232149 -23.35351562 2.47973633 C-20.48988393 2.04207098 -17.62541169 1.66423819 -14.75 1.3125 C-13.7703125 1.18294922 -12.790625 1.05339844 -11.78125 0.91992188 C-7.79978493 0.40592126 -4.02292844 0 0 0 Z " fill="#F7F7F7" transform="translate(762,480)"/>
<path d="M0 0 C5.20588572 1.76803666 7.36844831 4.22422101 10 9 C11.17682012 12.50313705 11.11436308 15.84012293 11.09765625 19.515625 C11.09443359 20.76601563 11.09121094 22.01640625 11.08789062 23.3046875 C11.07532227 25.25761719 11.07532227 25.25761719 11.0625 27.25 C11.05798828 28.56742188 11.05347656 29.88484375 11.04882812 31.2421875 C11.03704316 34.49483741 11.02059011 37.74739584 11 41 C8.36 41 5.72 41 3 41 C2.9906543 40.14245117 2.98130859 39.28490234 2.97167969 38.40136719 C2.92758709 35.21027321 2.86593944 32.02013244 2.79248047 28.82958984 C2.76430901 27.45048349 2.74307528 26.07121682 2.72900391 24.69189453 C2.70752455 22.70577051 2.65876868 20.72000091 2.609375 18.734375 C2.58842773 17.54038086 2.56748047 16.34638672 2.54589844 15.11621094 C1.90183721 11.43964675 0.93156678 10.23858293 -2 8 C-4.25060413 7.48397424 -4.25060413 7.48397424 -6.5625 7.6875 C-7.32691406 7.71199219 -8.09132813 7.73648438 -8.87890625 7.76171875 C-11.18626781 7.94634302 -11.18626781 7.94634302 -14 9 C-15.78726146 13.10867294 -16.28193148 16.8250266 -16.4140625 21.2734375 C-16.45273438 22.42714844 -16.49140625 23.58085938 -16.53125 24.76953125 C-16.57765625 26.55423828 -16.57765625 26.55423828 -16.625 28.375 C-16.66367188 29.58800781 -16.70234375 30.80101562 -16.7421875 32.05078125 C-16.83613786 35.03370521 -16.92180807 38.01662825 -17 41 C-19.31 41 -21.62 41 -24 41 C-24 27.8 -24 14.6 -24 1 C-21.69 1 -19.38 1 -17 1 C-16.67 2.32 -16.34 3.64 -16 5 C-15.21625 4.360625 -14.4325 3.72125 -13.625 3.0625 C-9.10513598 -0.48882173 -5.61245813 -0.51108388 0 0 Z " fill="#151615" transform="translate(1213,596)"/>
<path d="M0 0 C2.31 0 4.62 0 7 0 C7.02505615 0.82725586 7.0501123 1.65451172 7.07592773 2.50683594 C7.19196349 6.25471192 7.314656 10.00234125 7.4375 13.75 C7.47681641 15.05195312 7.51613281 16.35390625 7.55664062 17.6953125 C7.59853516 18.94570313 7.64042969 20.19609375 7.68359375 21.484375 C7.72025146 22.63647461 7.75690918 23.78857422 7.79467773 24.97558594 C8.00955811 28.57849104 8.00955811 28.57849104 9 32 C11.81227622 32.93742541 13.58746844 33.13470844 16.5 33.125 C17.2734375 33.12757813 18.046875 33.13015625 18.84375 33.1328125 C21.18447017 33.08145813 21.18447017 33.08145813 24 32 C25.34703602 28.66072971 25.20317742 25.04299544 25.31640625 21.484375 C25.35830078 20.23398437 25.40019531 18.98359375 25.44335938 17.6953125 C25.48267578 16.39335938 25.52199219 15.09140625 25.5625 13.75 C25.60568359 12.43257812 25.64886719 11.11515625 25.69335938 9.7578125 C25.79941917 6.50531212 25.90148024 3.25273608 26 0 C28.64 0 31.28 0 34 0 C34 13.2 34 26.4 34 40 C31.69 40 29.38 40 27 40 C26.67 38.68 26.34 37.36 26 36 C25.236875 36.639375 24.47375 37.27875 23.6875 37.9375 C19.46977823 41.17435625 16.2174344 41.35372437 11 41 C6.31829732 39.25583626 3.78750809 37.12964161 1 33 C-0.15927528 29.52217417 -0.11313066 26.81196743 -0.09765625 23.14453125 C-0.0962413 22.48289474 -0.09482635 21.82125824 -0.09336853 21.13957214 C-0.08777996 19.03050172 -0.07522965 16.92153823 -0.0625 14.8125 C-0.05748352 13.38086091 -0.05292087 11.94922015 -0.04882812 10.51757812 C-0.0378143 7.01168412 -0.02055755 3.5058525 0 0 Z " fill="#181919" transform="translate(676,597)"/>
<path d="M0 0 C3.63082339 2.17849403 5.1796295 4.13988863 7.125 7.875 C7.125 8.865 7.125 9.855 7.125 10.875 C3.9375 11.1875 3.9375 11.1875 0.125 10.875 C-0.679375 10.05 -1.48375 9.225 -2.3125 8.375 C-5.03474485 5.71915136 -5.43741239 5.47882769 -9 5.375 C-12.71675474 5.58892697 -12.71675474 5.58892697 -14.9375 7.125 C-16.05764074 8.84828781 -16.05764074 8.84828781 -15.75 10.9375 C-14.92247907 13.2261243 -14.92247907 13.2261243 -11.875 14.875 C-9.78238695 15.38348541 -7.67576475 15.83563436 -5.5625 16.25 C-0.42560799 17.37816915 3.14172593 18.44495844 7.125 21.875 C8.73578041 25.09656083 8.58036703 28.38168437 8.125 31.875 C6.25882683 35.83128711 4.7503999 37.49976006 1 39.75 C-5.02232401 41.90359338 -11.37253473 41.85174012 -17.25 39.3125 C-21.4045893 36.95767206 -22.98535058 34.20544659 -24.875 29.875 C-24.875 28.885 -24.875 27.895 -24.875 26.875 C-21.5625 26.5625 -21.5625 26.5625 -17.875 26.875 C-16.1875 29.25 -16.1875 29.25 -14.875 31.875 C-11.55428214 34.16411163 -9.04366817 33.96650811 -5.125 33.5 C-4.14015625 33.38914062 -3.1553125 33.27828125 -2.140625 33.1640625 C-1.39296875 33.06867187 -0.6453125 32.97328125 0.125 32.875 C0.125 30.235 0.125 27.595 0.125 24.875 C-1.11636719 24.64425781 -2.35773438 24.41351562 -3.63671875 24.17578125 C-5.27884646 23.84735571 -6.92076292 23.51787269 -8.5625 23.1875 C-9.37912109 23.03861328 -10.19574219 22.88972656 -11.03710938 22.73632812 C-16.38951842 21.63117484 -19.33945684 20.30314577 -22.875 15.875 C-24.63876342 12.34747316 -23.93203449 8.58423012 -22.875 4.875 C-17.47728616 -2.04639283 -7.87549719 -2.89791022 0 0 Z " fill="#101110" transform="translate(1172.875,597.125)"/>
<path d="M0 0 C3.82872107 2.02889493 6.10544763 4.32922544 7.828125 8.28125 C7.828125 9.27125 7.828125 10.26125 7.828125 11.28125 C4.640625 11.59375 4.640625 11.59375 0.828125 11.28125 C-0.83854167 9.61458333 -2.50520833 7.94791667 -4.171875 6.28125 C-7.99451501 5.88580448 -10.53404868 6.06864123 -14.171875 7.28125 C-14.501875 9.59125 -14.831875 11.90125 -15.171875 14.28125 C-14.00269531 14.53519531 -12.83351563 14.78914062 -11.62890625 15.05078125 C-10.08062463 15.39797167 -8.53245325 15.74565391 -6.984375 16.09375 C-6.21544922 16.25939453 -5.44652344 16.42503906 -4.65429688 16.59570312 C1.1171088 17.90851214 5.40424235 19.14542602 8.828125 24.28125 C9.28773911 28.95399344 9.27540067 31.33302559 7.265625 35.59375 C3.72351642 39.49915176 0.5264783 40.92469761 -4.56640625 41.59765625 C-10.54284176 41.88224842 -15.33783495 40.92348755 -20.171875 37.28125 C-24.171875 32.38125 -24.171875 32.38125 -24.171875 28.28125 C-20.921875 27.96875 -20.921875 27.96875 -17.171875 28.28125 C-14.859375 30.71875 -14.859375 30.71875 -13.171875 33.28125 C-10.10757724 34.81339888 -7.5553108 34.51063548 -4.171875 34.28125 C-1.20677967 33.27082782 -1.20677967 33.27082782 0.828125 31.28125 C1.00017587 28.70552809 1.00017587 28.70552809 0.828125 26.28125 C-1.03392578 25.82685547 -1.03392578 25.82685547 -2.93359375 25.36328125 C-4.57575438 24.94101137 -6.2176689 24.51778357 -7.859375 24.09375 C-9.08430664 23.79887695 -9.08430664 23.79887695 -10.33398438 23.49804688 C-15.57085112 22.11992405 -18.65481038 20.63075596 -22.171875 16.28125 C-23.93563842 12.75372316 -23.22890949 8.99048012 -22.171875 5.28125 C-16.98417041 -1.37085169 -7.71942632 -2.55463029 0 0 Z " fill="#141515" transform="translate(928.171875,596.71875)"/>
<path d="M0 0 C2.64 0 5.28 0 8 0 C11.63 9.24 15.26 18.48 19 28 C20.93676288 25.09485568 22.1013807 22.47471797 23.3828125 19.23828125 C23.82753906 18.12001953 24.27226563 17.00175781 24.73046875 15.84960938 C25.19066406 14.68236328 25.65085937 13.51511719 26.125 12.3125 C26.82689453 10.54422852 26.82689453 10.54422852 27.54296875 8.74023438 C28.69841584 5.82803611 29.85062526 2.91459903 31 0 C33.64 0 36.28 0 39 0 C31.41966297 19.03535749 23.72751088 38.0240194 16 57 C13.36 57 10.72 57 8 57 C8.44472656 55.92621094 8.88945313 54.85242188 9.34765625 53.74609375 C9.92012274 52.31023519 10.49168984 50.87401782 11.0625 49.4375 C11.35705078 48.73302734 11.65160156 48.02855469 11.95507812 47.30273438 C15.63869448 37.8986785 11.932638 30.82336511 8.125 22 C7.67769531 20.94554687 7.23039063 19.89109375 6.76953125 18.8046875 C4.42740096 13.28456186 4.42740096 13.28456186 2.01074219 7.796875 C0.75483431 4.98694715 0 3.12257374 0 0 Z " fill="#121313" transform="translate(587,597)"/>
<path d="M0 0 C3.4471633 2.85622102 5.76541895 5.54625684 7.1875 9.8125 C7.27128628 12.0963517 7.29479915 14.382601 7.28515625 16.66796875 C7.2837413 17.32960526 7.28232635 17.99124176 7.28086853 18.67292786 C7.27527996 20.78199828 7.26272965 22.89096177 7.25 25 C7.24498352 26.43163909 7.24042087 27.86327985 7.23632812 29.29492188 C7.2253143 32.80081588 7.20805755 36.3066475 7.1875 39.8125 C4.8775 39.8125 2.5675 39.8125 0.1875 39.8125 C0.16768066 38.98524414 0.14786133 38.15798828 0.12744141 37.30566406 C0.03218788 33.55762194 -0.07749109 29.81013683 -0.1875 26.0625 C-0.2184375 24.76054688 -0.249375 23.45859375 -0.28125 22.1171875 C-0.31992188 20.86679687 -0.35859375 19.61640625 -0.3984375 18.328125 C-0.44556885 16.59997559 -0.44556885 16.59997559 -0.49365234 14.83691406 C-0.79918037 11.93884273 -1.21292306 10.22145861 -2.8125 7.8125 C-5.26632134 6.58558933 -7.01234103 6.61074069 -9.75 6.5625 C-10.62527344 6.53671875 -11.50054688 6.5109375 -12.40234375 6.484375 C-14.85262675 6.61722964 -14.85262675 6.61722964 -16.56640625 8.140625 C-19.09652639 11.53526895 -18.99467005 14.92710292 -19.12890625 19.01171875 C-19.17080078 20.22021484 -19.21269531 21.42871094 -19.25585938 22.67382812 C-19.29517578 23.93646484 -19.33449219 25.19910156 -19.375 26.5 C-19.43977539 28.41135742 -19.43977539 28.41135742 -19.50585938 30.36132812 C-19.6120486 33.51160852 -19.71409533 36.66196839 -19.8125 39.8125 C-22.1225 39.8125 -24.4325 39.8125 -26.8125 39.8125 C-26.8125 26.6125 -26.8125 13.4125 -26.8125 -0.1875 C-24.5025 -0.1875 -22.1925 -0.1875 -19.8125 -0.1875 C-19.4825 0.8025 -19.1525 1.7925 -18.8125 2.8125 C-18.214375 2.338125 -17.61625 1.86375 -17 1.375 C-12.03931479 -2.16834658 -5.52661442 -2.33345942 0 0 Z " fill="#111212" transform="translate(1070.8125,597.1875)"/>
<path d="M0 0 C33.66 0 67.32 0 102 0 C102 6.93 102 13.86 102 21 C97.21256961 21.04591036 92.42590286 21.08573529 87.63842773 21.10986328 C86.00982068 21.11992142 84.38123168 21.13356958 82.75268555 21.15087891 C80.41190128 21.17513574 78.07135576 21.18648483 75.73046875 21.1953125 C74.63813179 21.21079636 74.63813179 21.21079636 73.52372742 21.22659302 C69.78724931 21.22742249 68.19324944 21.12883296 65 19 C76.55 19 88.1 19 100 19 C100 14.05 100 9.1 100 4 C100.33 3.34 100.66 2.68 101 2 C68.33 2 35.66 2 2 2 C2 7.61 2 13.22 2 19 C4.64773438 18.97679687 7.29546875 18.95359375 10.0234375 18.9296875 C12.58170085 18.91409968 15.13995896 18.90195 17.69824219 18.89013672 C19.47919067 18.88006569 21.26012257 18.86640815 23.04101562 18.84912109 C25.59769783 18.82492087 28.15416185 18.81352816 30.7109375 18.8046875 C31.90944839 18.78920364 31.90944839 18.78920364 33.13217163 18.77340698 C35.0895722 18.77300774 37.04643077 18.87758931 39 19 C41 21 41 21 41.24609566 22.8703022 C41.24333028 24.01793447 41.24333028 24.01793447 41.24050903 25.18875122 C41.24325836 26.06657257 41.24600769 26.94439392 41.24884033 27.84881592 C41.24164978 28.81410217 41.23445923 29.77938843 41.22705078 30.77392578 C41.22734283 31.78858917 41.22763489 32.80325256 41.22793579 33.84866333 C41.22653852 37.21429899 41.2109586 40.57971534 41.1953125 43.9453125 C41.19158378 46.27415852 41.18873615 48.6030061 41.18673706 50.93185425 C41.17908949 57.07053943 41.15943134 63.20913043 41.1373291 69.34777832 C41.11689486 75.60814133 41.10774053 81.86851952 41.09765625 88.12890625 C41.07618652 100.41931228 41.04203703 112.70964832 41 125 C40.34 125 39.68 125 39 125 C39 90.68 39 56.36 39 21 C26.13 21 13.26 21 0 21 C0 14.07 0 7.14 0 0 Z " fill="#0A0B0B" transform="translate(915,396)"/>
<path d="M0 0 C5.07057633 2.78384583 8.1657459 5.49723769 10 11 C10.45170076 17.88843662 9.60197232 22.00378944 4.9375 27.375 C0.63185098 29.75684839 -3.19041773 29.89265847 -8 29 C-11.38925493 27.30883803 -13.43540877 24.9495398 -15.375 21.6875 C-16.5561473 16.60856661 -16.58309513 12.5958393 -14.8125 7.75 C-11.02749941 2.00724049 -6.84004795 -0.65769692 0 0 Z " fill="#F5F6F6" transform="translate(816,602)"/>
<path d="M0 0 C3.23551706 2.11011982 4.85394116 3.78091174 7 7 C7.63080053 12.49383253 8.31946506 18.86355382 5.1875 23.6875 C2.8607196 26.14723928 1.13652019 27.81416623 -2.26953125 28.37109375 C-9.98481876 28.57256823 -9.98481876 28.57256823 -13.5 25.8125 C-17.64205293 21.15269046 -18.47518482 17.33195403 -18.3125 11.2109375 C-17.62566009 6.35154516 -14.78335712 3.69433927 -11.25 0.5625 C-7.09946017 -1.43295184 -4.34343367 -1.41497427 0 0 Z " fill="#F8F8F8" transform="translate(865,603)"/>
<path d="M0 0 C3.45771195 2.08358884 5.69296745 4.07890234 7 8 C7.9952125 19.30626664 7.9952125 19.30626664 5.1875 23.625 C2.8716658 26.13933428 1.17009174 27.80867691 -2.26953125 28.37109375 C-9.98701492 28.57262558 -9.98701492 28.57262558 -13.5 25.875 C-17.46466134 21.31563946 -18.49345821 16.87950653 -18.3125 10.953125 C-17.56569998 6.2856249 -14.65011371 3.57623715 -11.25 0.5625 C-7.08928931 -1.43784168 -4.34130082 -1.51039293 0 0 Z " fill="#F7F7F7" transform="translate(653,603)"/>
<path d="M0 0 C3.69460379 2.11120216 5.40327772 4.1222459 7 8 C7.92924245 15.05575952 7.3517826 20.31850604 3 26 C-1.16592173 28.57973396 -5.23014962 28.80186393 -10 28 C-13.59042575 26.23135476 -15.61319051 23.79120124 -17.375 20.1875 C-18.47809061 14.56173787 -18.94714755 10.21078725 -16.1875 5.125 C-11.86271422 -1.0532654 -7.01317483 -0.84199171 0 0 Z " fill="#F7F7F7" transform="translate(1300,603)"/>
<path d="M0 0 C2.31 0 4.62 0 7 0 C8.65 3.96 10.3 7.92 12 12 C11.01 12 10.02 12 9 12 C8.67 12.99 8.34 13.98 8 15 C7.67 15.66 7.34 16.32 7 17 C7.91146414 19.69336188 8.87858861 22.30296554 9.9375 24.9375 C13 32.61751663 13 32.61751663 13 36 C6.07 36 -0.86 36 -8 36 C-8 35.34 -8 34.68 -8 34 C-8.99 33.67 -9.98 33.34 -11 33 C-12.43524992 30.21321962 -11.96324375 28.88407294 -11.01196289 25.88378906 C-10.5039917 24.68979492 -9.99602051 23.49580078 -9.47265625 22.265625 C-9.20488876 21.62759949 -8.93712128 20.98957397 -8.66123962 20.33221436 C-7.80555138 18.30015126 -6.93431612 16.27518873 -6.0625 14.25 C-5.47877955 12.8715329 -4.89608491 11.49263094 -4.31445312 10.11328125 C-2.88816042 6.73706461 -1.44785123 3.36703704 0 0 Z " fill="#151515" transform="translate(502,581)"/>
<path d="M0 0 C2.31 0 4.62 0 7 0 C7 3.96 7 7.92 7 12 C10.3 12 13.6 12 17 12 C17 13.98 17 15.96 17 18 C13.7 18 10.4 18 7 18 C7.33 26.91 7.66 35.82 8 45 C10.97 45.33 13.94 45.66 17 46 C17 47.98 17 49.96 17 52 C7.07849011 52.62552427 7.07849011 52.62552427 2.875 50.1875 C-0.20934276 46.58910012 -0.11993514 43.58670395 -0.09765625 39.01953125 C-0.09443359 37.85615234 -0.09121094 36.69277344 -0.08789062 35.49414062 C-0.07951172 34.27919922 -0.07113281 33.06425781 -0.0625 31.8125 C-0.05798828 30.58595703 -0.05347656 29.35941406 -0.04882812 28.09570312 C-0.03703065 25.06375332 -0.02056921 22.03190094 0 19 C-2.31 19 -4.62 19 -7 19 C-7 17.02 -7 15.04 -7 13 C-4.69 13 -2.38 13 0 13 C0 8.71 0 4.42 0 0 Z " fill="#0D0E0D" transform="translate(771,585)"/>
<path d="M0 0 C2.64 0 5.28 0 8 0 C8 18.48 8 36.96 8 56 C5.36 56 2.72 56 0 56 C0 37.52 0 19.04 0 0 Z " fill="#242424" transform="translate(537,581)"/>
<path d="M0 0 C2.31 0 4.62 0 7 0 C7 18.48 7 36.96 7 56 C4.69 56 2.38 56 0 56 C0 37.52 0 19.04 0 0 Z " fill="#181918" transform="translate(889,581)"/>
<path d="M0 0 C2.31 0 4.62 0 7 0 C7 18.15 7 36.3 7 55 C4.69 55 2.38 55 0 55 C0 36.85 0 18.7 0 0 Z " fill="#131414" transform="translate(555,582)"/>
<path d="M0 0 C0 2.31 0 4.62 0 7 C-0.92232422 7.16435547 -0.92232422 7.16435547 -1.86328125 7.33203125 C-3.07564453 7.56986328 -3.07564453 7.56986328 -4.3125 7.8125 C-5.51326172 8.03873047 -5.51326172 8.03873047 -6.73828125 8.26953125 C-9.29039274 9.09378833 -10.35316788 9.90725641 -12 12 C-13.05836661 15.17509982 -13.20243789 17.64282383 -13.31640625 20.98046875 C-13.35830078 22.14384766 -13.40019531 23.30722656 -13.44335938 24.50585938 C-13.48267578 25.72080078 -13.52199219 26.93574219 -13.5625 28.1875 C-13.60568359 29.41404297 -13.64886719 30.64058594 -13.69335938 31.90429688 C-13.7995309 34.93608381 -13.90157952 37.96795315 -14 41 C-16.31 41 -18.62 41 -21 41 C-21 27.8 -21 14.6 -21 1 C-18.69 1 -16.38 1 -14 1 C-13.67 2.32 -13.34 3.64 -13 5 C-12.154375 4.175 -11.30875 3.35 -10.4375 2.5 C-7.03972892 -0.3787798 -4.43607134 -0.44360713 0 0 Z " fill="#141414" transform="translate(741,596)"/>
<path d="M0 0 C7.59 0 15.18 0 23 0 C22.67 0.66 22.34 1.32 22 2 C21.90699158 3.68521815 21.878081 5.37413819 21.87974548 7.06192017 C21.87837082 8.13326706 21.87699615 9.20461395 21.87557983 10.3084259 C21.87917511 11.48877914 21.88277039 12.66913239 21.88647461 13.88525391 C21.88632858 15.12424942 21.88618256 16.36324493 21.8860321 17.63978577 C21.88661047 21.04247502 21.89163473 24.44510403 21.89860606 27.84778261 C21.90484632 31.40188705 21.90544393 34.95599225 21.90663147 38.51010132 C21.9097428 45.24261787 21.91795352 51.97511824 21.92798096 58.70762765 C21.93914824 66.3713712 21.9446541 74.03511552 21.94967639 81.69886518 C21.96013629 97.4659195 21.97773191 113.23295766 22 129 C19.03 129 16.06 129 13 129 C13 128.67 13 128.34 13 128 C15.64 128 18.28 128 21 128 C21 86.75 21 45.5 21 3 C14.73 3 8.46 3 2 3 C2 44.25 2 85.5 2 128 C5.3 128 8.6 128 12 128 C12 128.33 12 128.66 12 129 C8.37 129 4.74 129 1 129 C0.67 86.43 0.34 43.86 0 0 Z " fill="#1B1C1C" transform="translate(1241,392)"/>
<path d="M0 0 C2.79703445 4.19555168 3.17061118 8.00035078 3 13 C1.370901 18.92213347 -2.01268728 22.60862735 -7 26 C-12.43547088 28.53655308 -18.42475224 29.12767671 -24.1796875 27.3125 C-29.05936745 25.10283361 -31.93573752 22.36425262 -35 18 C-35.33 17.01 -35.66 16.02 -36 15 C-34.6875 13.5 -34.6875 13.5 -33 12 C-32.01 12 -31.02 12 -30 12 C-29.38125 13.3921875 -29.38125 13.3921875 -28.75 14.8125 C-26.99110132 18.01620831 -26.09135188 19.20257649 -23 21 C-17.94116365 21.41465872 -13.34633017 20.76933153 -8.9375 18.25 C-6.91788986 15.90464629 -5.90082222 13.94814546 -5 11 C-4.67 11 -4.34 11 -4 11 C-3.67 7.7 -3.34 4.4 -3 1 C-2.34 1.33 -1.68 1.66 -1 2 C-0.67 1.34 -0.34 0.68 0 0 Z " fill="#131413" transform="translate(830,610)"/>
<path d="M0 0 C2.31 0 4.62 0 7 0 C7.02505615 0.82725586 7.0501123 1.65451172 7.07592773 2.50683594 C7.19196349 6.25471192 7.314656 10.00234125 7.4375 13.75 C7.47681641 15.05195312 7.51613281 16.35390625 7.55664062 17.6953125 C7.59853516 18.94570313 7.64042969 20.19609375 7.68359375 21.484375 C7.72025146 22.63647461 7.75690918 23.78857422 7.79467773 24.97558594 C8.00955811 28.57849104 8.00955811 28.57849104 9 32 C12.01490557 33.00496852 14.04181692 33.10335303 17.1875 33.0625 C18.08855469 33.05347656 18.98960937 33.04445313 19.91796875 33.03515625 C20.60503906 33.02355469 21.29210937 33.01195312 22 33 C22 33.66 22 34.32 22 35 C21.34 35.66 20.68 36.32 20 37 C19.67 37.66 19.34 38.32 19 39 C16.36 38.67 13.72 38.34 11 38 C11 38.66 11 39.32 11 40 C7.07668566 39.77581061 6.03871912 39.04047908 3.25 36.125 C-0.0149483 31.59034958 -0.12073805 28.6149172 -0.09765625 23.14453125 C-0.0962413 22.48289474 -0.09482635 21.82125824 -0.09336853 21.13957214 C-0.08777996 19.03050172 -0.07522965 16.92153823 -0.0625 14.8125 C-0.05748352 13.38086091 -0.05292087 11.94922015 -0.04882812 10.51757812 C-0.0378143 7.01168412 -0.02055755 3.5058525 0 0 Z " fill="#0F0F0F" transform="translate(676,597)"/>
<path d="M0 0 C3.40920514 2.411389 5.69634878 5.08019755 7.5625 8.8125 C7.64836809 11.13666296 7.66961043 13.46333307 7.66015625 15.7890625 C7.6587413 16.47431 7.65732635 17.1595575 7.65586853 17.86557007 C7.65026675 20.05625761 7.63771406 22.2468433 7.625 24.4375 C7.61998522 25.92187352 7.61542228 27.40624865 7.61132812 28.890625 C7.60029677 32.53128315 7.58303099 36.17188164 7.5625 39.8125 C5.5825 39.8125 3.6025 39.8125 1.5625 39.8125 C1.5625 38.1625 1.5625 36.5125 1.5625 34.8125 C1.8925 35.8025 2.2225 36.7925 2.5625 37.8125 C4.0475 37.3175 4.0475 37.3175 5.5625 36.8125 C5.0675 25.4275 5.0675 25.4275 4.5625 13.8125 C3.5725 14.3075 3.5725 14.3075 2.5625 14.8125 C2.005625 13.884375 1.44875 12.95625 0.875 12 C-1.47049581 8.76701929 -2.75372831 7.26887485 -6.4375 5.8125 C-10.01022597 5.93569745 -12.43718635 6.04559287 -15.3125 8.25 C-16.51174926 9.82792449 -16.51174926 9.82792449 -17.4375 11.8125 C-19.7475 11.8125 -22.0575 11.8125 -24.4375 11.8125 C-24.16440064 7.89807587 -23.68757787 6.1098899 -21.125 3.0625 C-14.8132359 -2.22176762 -7.7472428 -2.67632024 0 0 Z " fill="#0C0D0C" transform="translate(1257.4375,597.1875)"/>
<path d="M0 0 C0 0.33 0 0.66 0 1 C-1.65 1 -3.3 1 -5 1 C-5 35.98 -5 70.96 -5 107 C-12.92 107 -20.84 107 -29 107 C-29 106.34 -29 105.68 -29 105 C-21.74 105 -14.48 105 -7 105 C-7 70.35 -7 35.7 -7 0 C-4.3333581 -1.33332095 -2.83319697 -0.67102033 0 0 Z " fill="#3C3C3C" transform="translate(983,416)"/>
<path d="M0 0 C2.21964141 2.21964141 2.84038634 3.80371901 3.9453125 6.71875 C4.29980469 7.65074219 4.65429688 8.58273437 5.01953125 9.54296875 C5.38433594 10.51878906 5.74914062 11.49460937 6.125 12.5 C6.68380859 13.96373047 6.68380859 13.96373047 7.25390625 15.45703125 C10 22.72965316 10 22.72965316 10 25 C3.73 25 -2.54 25 -9 25 C-6.61584032 16.39053449 -3.39757674 8.24654549 0 0 Z " fill="#F6F6F7" transform="translate(505,591)"/>
<path d="M0 0 C1.71987972 2.57981959 2.8028204 4.74936391 3.9453125 7.59765625 C4.29980469 8.48130859 4.65429688 9.36496094 5.01953125 10.27539062 C5.38433594 11.19513672 5.74914062 12.11488281 6.125 13.0625 C6.49753906 13.98611328 6.87007812 14.90972656 7.25390625 15.86132812 C7.60582031 16.74369141 7.95773437 17.62605469 8.3203125 18.53515625 C8.64273926 19.343479 8.96516602 20.15180176 9.29736328 20.98461914 C10 23 10 23 10 25 C7.36 25 4.72 25 2 25 C1.16235732 23.04350603 0.33000941 21.08474444 -0.5 19.125 C-1.19609375 17.48917969 -1.19609375 17.48917969 -1.90625 15.8203125 C-3 13 -3 13 -3 11 C-11.25 11 -19.5 11 -28 11 C-28 8 -28 8 -26 6 C-23.92456055 5.76049805 -23.92456055 5.76049805 -21.38671875 5.76171875 C-20.0090332 5.73754883 -20.0090332 5.73754883 -18.60351562 5.71289062 C-16.67129019 5.69606616 -14.73892821 5.6907155 -12.80664062 5.69726562 C-6.73055702 5.66401779 -6.73055702 5.66401779 -1.83203125 2.45703125 C-1.22746094 1.64621094 -0.62289062 0.83539062 0 0 Z " fill="#1E1E1E" transform="translate(521,612)"/>
<path d="M0 0 C9.9 0 19.8 0 30 0 C29.67 1.32 29.34 2.64 29 4 C27 4.66666667 25 5.33333333 23 6 C20.75149517 8.47661498 20.75149517 8.47661498 19 11 C15.26299831 12.86850084 11.06934775 12.54216425 7 12 C4.06164888 10.69211118 3.14988819 9.5908909 1 7 C0.67 4.69 0.34 2.38 0 0 Z " fill="#EEEEEE" transform="translate(1094,619)"/>
<path d="M0 0 C7.59 0 15.18 0 23 0 C23 3.3 23 6.6 23 10 C22.01 10.495 22.01 10.495 21 11 C21 8.03 21 5.06 21 2 C14.4 2 7.8 2 1 2 C1 32.03 1 62.06 1 93 C7.93 93 14.86 93 22 93 C21.98952637 91.31406738 21.97905273 89.62813477 21.96826172 87.89111328 C21.93604018 82.32714192 21.9130435 76.76318395 21.89637566 71.19914436 C21.88592858 67.82493006 21.87175275 64.45081648 21.84912109 61.07666016 C21.82495115 57.19951682 21.81353489 53.32251723 21.8046875 49.4453125 C21.79436493 48.23070343 21.78404236 47.01609436 21.77340698 45.76467896 C21.77325592 44.64366791 21.77310486 43.52265686 21.77294922 42.36767578 C21.768508 41.37728302 21.76406677 40.38689026 21.75949097 39.3664856 C22 37 22 37 24 35 C23.67 54.47 23.34 73.94 23 94 C15.41 94 7.82 94 0 94 C0 62.98 0 31.96 0 0 Z " fill="#000000" transform="translate(595,428)"/>
<path d="M0 0 C1.32 0 2.64 0 4 0 C4 17.16 4 34.32 4 52 C2.68 52 1.36 52 0 52 C0 34.84 0 17.68 0 0 Z " fill="#191919" transform="translate(539,583)"/>
<path d="M0 0 C1.76923828 0.01353516 1.76923828 0.01353516 3.57421875 0.02734375 C4.47785156 0.03894531 5.38148437 0.05054688 6.3125 0.0625 C5.94407895 7.43092105 5.94407895 7.43092105 2.875 10.5 C-1.29688455 13.04383204 -3.73252085 13.4042227 -8.6875 13.0625 C-11.125 11.9375 -11.125 11.9375 -12.6875 10.0625 C-13.16100184 6.81563026 -13.33326592 4.95427198 -11.375 2.25 C-7.73496473 -0.3115063 -4.29518923 -0.04252663 0 0 Z " fill="#F3F3F3" transform="translate(1251.6875,618.9375)"/>
<path d="M0 0 C3.80648318 2.70460647 5.64425573 4.53041477 7 9 C7.22705078 12.3215332 7.22705078 12.3215332 7.1953125 16.05078125 C7.1924826 16.70958786 7.18965271 17.36839447 7.18673706 18.04716492 C7.17560924 20.13580062 7.15051948 22.22399556 7.125 24.3125 C7.11496059 25.73501982 7.10583642 27.1575464 7.09765625 28.58007812 C7.07569447 32.05352681 7.04121646 35.52672033 7 39 C4.69 39 2.38 39 0 39 C0 29.76 0 20.52 0 11 C0.66 12.32 1.32 13.64 2 15 C2.66 14.34 3.32 13.68 4 13 C3.89690363 7.62534242 3.89690363 7.62534242 1.4375 3.125 C0.963125 2.75375 0.48875 2.3825 0 2 C0 1.34 0 0.68 0 0 Z " fill="#0C0D0D" transform="translate(1071,598)"/>
<path d="M0 0 C1.32 0 2.64 0 4 0 C4.33 3.63 4.66 7.26 5 11 C7.97 11.33 10.94 11.66 14 12 C14 12.99 14 13.98 14 15 C10.7 15.33 7.4 15.66 4 16 C3.87882813 17.50433594 3.75765625 19.00867188 3.6328125 20.55859375 C3.4640364 22.51827184 3.29473867 24.47790505 3.125 26.4375 C3.00705078 27.92733398 3.00705078 27.92733398 2.88671875 29.44726562 C2.80292969 30.39150391 2.71914063 31.33574219 2.6328125 32.30859375 C2.55949707 33.18314209 2.48618164 34.05769043 2.41064453 34.95874023 C2.27513184 35.63235596 2.13961914 36.30597168 2 37 C1.01 37.495 1.01 37.495 0 38 C-0.33 32.72 -0.66 27.44 -1 22 C-1.33 22 -1.66 22 -2 22 C-2 20.35 -2 18.7 -2 17 C-4.31 17 -6.62 17 -9 17 C-8.67 15.35 -8.34 13.7 -8 12 C-4.535 11.505 -4.535 11.505 -1 11 C-0.67 7.37 -0.34 3.74 0 0 Z " fill="#161716" transform="translate(773,587)"/>
<path d="M0 0 C2.5142511 1.44471444 3.94175184 2.84374002 6 5 C6.33 6.65 6.66 8.3 7 10 C-0.59 10 -8.18 10 -16 10 C-13.66666667 3 -13.66666667 3 -10 0 C-6.14217025 -1.28594325 -3.95337324 -0.93808857 0 0 Z " fill="#F5F5F5" transform="translate(1110,603)"/>
<path d="M0 0 C0.96254164 2.88762493 1.02820226 4.35569642 0.875 7.3125 C0.84693792 11.63405972 1.47030044 14.3740973 4 18 C7.89375397 21.20153104 10.99166746 22.52301595 16 23 C15.67 23.99 15.34 24.98 15 26 C12.69 26 10.38 26 8 26 C8 26.66 8 27.32 8 28 C2.67426897 27.67722842 -0.46900545 24.70536465 -4 21 C-7.60993145 15.87622633 -7.32168601 11.02863415 -7 5 C-6.01 6.485 -6.01 6.485 -5 8 C-4.01 7.67 -3.02 7.34 -2 7 C-0.77030122 3.48809191 -0.77030122 3.48809191 0 0 Z " fill="#101110" transform="translate(847,609)"/>
<path d="M0 0 C2.64 0 5.28 0 8 0 C8 13.2 8 26.4 8 40 C5.69 40 3.38 40 1 40 C1 38.35 1 36.7 1 35 C1.33 35.99 1.66 36.98 2 38 C3.32 38 4.64 38 6 38 C5.67 26.12 5.34 14.24 5 2 C3.28556781 3.71443219 3.76947033 6.00445241 3.68359375 8.34765625 C3.64169922 9.42724609 3.59980469 10.50683594 3.55664062 11.61914062 C3.51732422 12.75544922 3.47800781 13.89175781 3.4375 15.0625 C3.37272461 16.77276367 3.37272461 16.77276367 3.30664062 18.51757812 C3.20017161 21.34492195 3.09815793 24.17235738 3 27 C2.34 27 1.68 27 1 27 C0.67 28.32 0.34 29.64 0 31 C-0.66 30.67 -1.32 30.34 -2 30 C-1.67 29.34 -1.34 28.68 -1 28 C-0.84558791 25.89625004 -0.75007361 23.78804881 -0.68359375 21.6796875 C-0.64169922 20.42285156 -0.59980469 19.16601562 -0.55664062 17.87109375 C-0.51732422 16.55238281 -0.47800781 15.23367188 -0.4375 13.875 C-0.39430488 12.53514249 -0.35069027 11.19529844 -0.30664062 9.85546875 C-0.20029019 6.57042185 -0.09826192 3.28529719 0 0 Z " fill="#2D2E2E" transform="translate(702,597)"/>
<path d="M0 0 C3.87040718 1.46808548 5.17644207 3.33516093 7 7 C7.34057617 9.77075195 7.34057617 9.77075195 7.29296875 12.73828125 C7.28330078 13.80498047 7.27363281 14.87167969 7.26367188 15.97070312 C7.23853516 17.07349609 7.21339844 18.17628906 7.1875 19.3125 C7.17396484 20.43462891 7.16042969 21.55675781 7.14648438 22.71289062 C7.1112138 25.47575229 7.06192235 28.23762829 7 31 C7.66 31 8.32 31 9 31 C8.98952637 30.25314941 8.97905273 29.50629883 8.96826172 28.73681641 C8.9267923 25.36624492 8.90070271 21.995727 8.875 18.625 C8.85824219 17.449375 8.84148437 16.27375 8.82421875 15.0625 C8.81777344 13.94101562 8.81132813 12.81953125 8.8046875 11.6640625 C8.79421387 10.62717285 8.78374023 9.5902832 8.77294922 8.52197266 C9 6 9 6 11 4 C12.40912096 6.81824192 12.11183553 9.17251282 12.09765625 12.3203125 C12.09443359 13.57714844 12.09121094 14.83398438 12.08789062 16.12890625 C12.07951172 17.44761719 12.07113281 18.76632812 12.0625 20.125 C12.05748489 21.46484211 12.05292201 22.804686 12.04882812 24.14453125 C12.03701086 27.42973206 12.02053617 30.71484397 12 34 C9.36 34 6.72 34 4 34 C3.98541748 33.14768799 3.97083496 32.29537598 3.95581055 31.41723633 C3.89456715 28.23928825 3.82037971 25.06197454 3.73754883 21.88452148 C3.70440194 20.51224042 3.67633829 19.13982638 3.65356445 17.76733398 C3.61983234 15.78862234 3.5659851 13.81028624 3.51171875 11.83203125 C3.48553467 10.64327393 3.45935059 9.4545166 3.43237305 8.22973633 C2.96933888 4.77096786 1.99947878 2.82347818 0 0 Z " fill="#2A2A2A" transform="translate(1212,603)"/>
<path d="M0 0 C0.33 0 0.66 0 1 0 C1 2.64 1 5.28 1 8 C2.65 7.34 4.3 6.68 6 6 C7.10988154 9.88458538 7.27218822 11.47656112 5.375 15.125 C1.87755657 19.35874731 -1.62532752 22.56675401 -7 24 C-10.34074266 24.15418812 -13.65856398 24.11678806 -17 24 C-16.125 19.25 -16.125 19.25 -15 17 C-13.40700105 16.68662316 -11.79888931 16.44817965 -10.1875 16.25 C-6.37657931 15.53681341 -5.26667535 15.26667535 -2.4375 12.4375 C-0.69190546 8.26325219 -0.19958223 4.4906002 0 0 Z " fill="#191A1A" transform="translate(872,614)"/>
<path d="M0 0 C3 1.875 3 1.875 5 4 C5 4.66 5 5.32 5 6 C7.31 6 9.62 6 12 6 C12 6.99 12 7.98 12 9 C11.030625 9.28875 10.06125 9.5775 9.0625 9.875 C5.89335797 10.64214682 5.89335797 10.64214682 5 13 C-7.85421412 11.44191344 -7.85421412 11.44191344 -12 7 C-11.6875 4.625 -11.6875 4.625 -11 2 C-7.31423012 -0.45717992 -4.28072154 -0.69957317 0 0 Z " fill="#F0F0F1" transform="translate(1168,602)"/>
<path d="M0 0 C2.9375 1.875 2.9375 1.875 5 4 C5 4.66 5 5.32 5 6 C7.31 6 9.62 6 12 6 C12 6.99 12 7.98 12 9 C4.50097777 11.24970667 -1.42523211 12.81968232 -9 10 C-11.0625 8.6875 -11.0625 8.6875 -12 7 C-11.9375 4.4375 -11.9375 4.4375 -11 2 C-7.70744355 -0.65937252 -4.06341761 -0.42772817 0 0 Z " fill="#F3F3F3" transform="translate(924,602)"/>
<path d="M0 0 C1.32 0.66 2.64 1.32 4 2 C4.66 1.34 5.32 0.68 6 0 C6.66 0 7.32 0 8 0 C7.67 2.97 7.34 5.94 7 9 C3.06745992 9.09895097 -0.86459746 9.1715042 -4.7980957 9.21972656 C-6.79339014 9.24971281 -8.78833582 9.30053786 -10.78320312 9.3515625 C-12.66362305 9.37089844 -12.66362305 9.37089844 -14.58203125 9.390625 C-15.73936768 9.41157227 -16.8967041 9.43251953 -18.08911133 9.45410156 C-21 9 -21 9 -22.90112305 6.97558594 C-23.26375244 6.32364258 -23.62638184 5.67169922 -24 5 C-23.34 3.68 -22.68 2.36 -22 1 C-22 1.99 -22 2.98 -22 4 C-14.41 4 -6.82 4 1 4 C0.67 2.68 0.34 1.36 0 0 Z " fill="#1A1B1A" transform="translate(1116,609)"/>
<path d="M0 0 C0.33 0 0.66 0 1 0 C1.33 2.97 1.66 5.94 2 9 C2.99 9 3.98 9 5 9 C5.33 9.99 5.66 10.98 6 12 C6.92962569 14.38216583 7.85627868 16.71255736 9 19 C8.0625 21.125 8.0625 21.125 7 23 C7 22.34 7 21.68 7 21 C6.01 21 5.02 21 4 21 C4 27.6 4 34.2 4 41 C2.68 41 1.36 41 0 41 C0 27.47 0 13.94 0 0 Z " fill="#191A1A" transform="translate(1277,611)"/>
<path d="M0 0 C2.31 0 4.62 0 7 0 C7 1.65 7 3.3 7 5 C6.01 5.495 6.01 5.495 5 6 C5 4.35 5 2.7 5 1 C4.01 1 3.02 1 2 1 C2 18.82 2 36.64 2 55 C3.32 55 4.64 55 6 55 C6 48.4 6 41.8 6 35 C6.33 35 6.66 35 7 35 C7 42.26 7 49.52 7 57 C4.69 57 2.38 57 0 57 C0 38.19 0 19.38 0 0 Z " fill="#0C0D0D" transform="translate(1275,597)"/>
<path d="M0 0 C0.4125 0.928125 0.825 1.85625 1.25 2.8125 C3.36634805 6.74325109 3.36634805 6.74325109 7 9 C10.01771384 9.23494312 12.98031594 9.17421254 16 9 C16 9.99 16 10.98 16 12 C17.65 12 19.3 12 21 12 C21 12.99 21 13.98 21 15 C14.14547218 16.89888946 8.07239074 16.79933492 1.79296875 13.27734375 C-1.99146641 10.58124289 -4.51691714 7.44924858 -6 3 C-3.375 0 -3.375 0 0 0 Z " fill="#1A1A1A" transform="translate(800,622)"/>
<path d="M0 0 C0.33 0 0.66 0 1 0 C1.33 7.26 1.66 14.52 2 22 C2.66 19.03 3.32 16.06 4 13 C4.66 12.34 5.32 11.68 6 11 C6 20.24 6 29.48 6 39 C4.02 39 2.04 39 0 39 C0 26.13 0 13.26 0 0 Z " fill="#1C1C1C" transform="translate(1045,598)"/>
<path d="M0 0 C3.3125 -0.3125 3.3125 -0.3125 7 0 C8.6875 2.375 8.6875 2.375 10 5 C12.06700655 6.32793606 12.06700655 6.32793606 14 7 C14 7.66 14 8.32 14 9 C16.64 9 19.28 9 22 9 C22.33 9.99 22.66 10.98 23 12 C22.67 12.66 22.34 13.32 22 14 C15.22811868 14.49956502 9.50238809 14.36133987 4 10 C1.48609341 6.87537034 0 4.09677858 0 0 Z " fill="#151616" transform="translate(1148,624)"/>
<path d="M0 0 C1.20366211 0.00483398 1.20366211 0.00483398 2.43164062 0.00976562 C3.68170898 0.02233398 3.68170898 0.02233398 4.95703125 0.03515625 C6.22450195 0.04192383 6.22450195 0.04192383 7.51757812 0.04882812 C9.6015928 0.06060222 11.68557102 0.07853735 13.76953125 0.09765625 C13.76953125 0.42765625 13.76953125 0.75765625 13.76953125 1.09765625 C12.77050781 1.14664063 11.77148438 1.195625 10.7421875 1.24609375 C9.45183594 1.32085938 8.16148438 1.395625 6.83203125 1.47265625 C5.54425781 1.54226563 4.25648437 1.611875 2.9296875 1.68359375 C1.88683594 1.82023438 0.84398437 1.956875 -0.23046875 2.09765625 C-0.56046875 2.75765625 -0.89046875 3.41765625 -1.23046875 4.09765625 C4.04953125 4.09765625 9.32953125 4.09765625 14.76953125 4.09765625 C14.76953125 4.42765625 14.76953125 4.75765625 14.76953125 5.09765625 C13.81691406 5.13503906 12.86429688 5.17242188 11.8828125 5.2109375 C10.62855469 5.27667969 9.37429688 5.34242188 8.08203125 5.41015625 C6.84066406 5.46816406 5.59929687 5.52617188 4.3203125 5.5859375 C0.66885566 6.11216505 -1.355708 6.81411988 -4.23046875 9.09765625 C-4.82634452 13.18366153 -4.54614259 14.6241455 -2.23046875 18.09765625 C-6.68546875 17.10765625 -6.68546875 17.10765625 -11.23046875 16.09765625 C-10.90046875 13.45765625 -10.57046875 10.81765625 -10.23046875 8.09765625 C-10.89046875 8.09765625 -11.55046875 8.09765625 -12.23046875 8.09765625 C-10.94035883 5.21971874 -9.65685069 3.13581708 -7.23046875 1.09765625 C-4.46481493 0.17577164 -2.84763173 -0.02019597 0 0 Z " fill="#0B0C0C" transform="translate(1244.23046875,613.90234375)"/>
<path d="M0 0 C5.77378925 0.4811491 9.95859836 2.18467181 15 5 C15 6.98 15 8.96 15 11 C12 11 12 11 8.875 9.5 C2.07126005 6.76566677 -5.80724519 7.7793132 -13 8 C-12.34 7.67 -11.68 7.34 -11 7 C-11.33 5.68 -11.66 4.36 -12 3 C-11.01 2.67 -10.02 2.34 -9 2 C-8.34 2.33 -7.68 2.66 -7 3 C-4.6670134 3.04022391 -2.33293334 3.04320247 0 3 C0 2.01 0 1.02 0 0 Z " fill="#141414" transform="translate(1009,581)"/>
<path d="M0 0 C2.31 0 4.62 0 7 0 C7.33 1.32 7.66 2.64 8 4 C8.66 3.67 9.32 3.34 10 3 C9.67 3.99 9.34 4.98 9 6 C8.01 6 7.02 6 6 6 C6 4.35 6 2.7 6 1 C4.68 1 3.36 1 2 1 C2 13.21 2 25.42 2 38 C3.32 38 4.64 38 6 38 C5.98952637 37.26362305 5.97905273 36.52724609 5.96826172 35.76855469 C5.92666298 32.42907124 5.90066136 29.08964235 5.875 25.75 C5.85824219 24.59113281 5.84148437 23.43226563 5.82421875 22.23828125 C5.81777344 21.12324219 5.81132813 20.00820313 5.8046875 18.859375 C5.79421387 17.83295898 5.78374023 16.80654297 5.77294922 15.74902344 C6.00163889 12.98015712 6.5756701 11.35581208 8 9 C8.33 9.66 8.66 10.32 9 11 C8.67 11.99 8.34 12.98 8 14 C7.85013589 15.9906444 7.75171962 17.98535391 7.68359375 19.98046875 C7.64169922 21.14384766 7.59980469 22.30722656 7.55664062 23.50585938 C7.51732422 24.72080078 7.47800781 25.93574219 7.4375 27.1875 C7.39431641 28.41404297 7.35113281 29.64058594 7.30664062 30.90429688 C7.2004691 33.93608381 7.09842048 36.96795315 7 40 C4.69 40 2.38 40 0 40 C0 26.8 0 13.6 0 0 Z " fill="#0A0A0A" transform="translate(1189,597)"/>
<path d="M0 0 C2.31 0 4.62 0 7 0 C7 3.96 7 7.92 7 12 C10.3 12 13.6 12 17 12 C17 13.98 17 15.96 17 18 C13.7 18 10.4 18 7 18 C7 26.58 7 35.16 7 44 C6.67 44 6.34 44 6 44 C6 35.09 6 26.18 6 17 C9.3 17 12.6 17 16 17 C16 16.01 16 15.02 16 14 C15.36191406 14.01160156 14.72382812 14.02320313 14.06640625 14.03515625 C13.24011719 14.04417969 12.41382813 14.05320312 11.5625 14.0625 C10.32693359 14.07990234 10.32693359 14.07990234 9.06640625 14.09765625 C7 14 7 14 6 13 C5.92773498 11.14712498 5.9161878 9.29166122 5.9375 7.4375 C5.94652344 6.42558594 5.95554687 5.41367187 5.96484375 4.37109375 C5.97644531 3.58863281 5.98804688 2.80617188 6 2 C4.68 2 3.36 2 2 2 C2.01160156 2.78246094 2.02320313 3.56492187 2.03515625 4.37109375 C2.04417969 5.38300781 2.05320312 6.39492188 2.0625 7.4375 C2.07410156 8.44683594 2.08570313 9.45617187 2.09765625 10.49609375 C2 13 2 13 1 14 C-1.33297433 14.04092937 -3.66705225 14.04241723 -6 14 C-6 14.99 -6 15.98 -6 17 C-4.02 17 -2.04 17 0 17 C0 17.33 0 17.66 0 18 C-2.31 18 -4.62 18 -7 18 C-7 16.35 -7 14.7 -7 13 C-4.69 13 -2.38 13 0 13 C0 8.71 0 4.42 0 0 Z " fill="#030303" transform="translate(771,585)"/>
<path d="M0 0 C1.44319692 0.90767102 2.87934106 1.82656106 4.3125 2.75 C5.11300781 3.26046875 5.91351562 3.7709375 6.73828125 4.296875 C9.01353307 6.01019071 10.45546403 7.62071482 12 10 C12 10.33 12 10.66 12 11 C15.3 11.33 18.6 11.66 22 12 C22 12.66 22 13.32 22 14 C17.64581273 16.17709364 13.34229211 15.41946628 8.875 14.0234375 C0.54154745 10.75816643 0.54154745 10.75816643 -1.40625 8.03125 C-2.30231981 4.96574801 -1.17610844 2.87493173 0 0 Z " fill="#1A1A1A" transform="translate(990,623)"/>
<path d="M0 0 C2.31 0 4.62 0 7 0 C6.58240017 4.73279805 4.54082887 7.9424108 1 11 C-4.43031696 14.17064258 -9.8473193 14.38454254 -16 14 C-16 13.01 -16 12.02 -16 11 C-13.36 10.67 -10.72 10.34 -8 10 C-8 9.34 -8 8.68 -8 8 C-6.576875 7.4121875 -6.576875 7.4121875 -5.125 6.8125 C-1.65872662 4.80206144 -1.0197307 3.77300358 0 0 Z " fill="#151616" transform="translate(1117,624)"/>
<path d="M0 0 C3.25 -0.3125 3.25 -0.3125 7 0 C8.37482707 1.63260714 9.70647667 3.30225062 11 5 C14.62473109 6.35835671 14.62473109 6.35835671 18 7 C18 7.66 18 8.32 18 9 C19.32 9.33 20.64 9.66 22 10 C20.02 10.33 18.04 10.66 16 11 C16 11.33 16 11.66 16 12 C10.29410528 12.45647158 7.39901992 11.69917584 3 8 C0.81297638 5.01106771 0 3.72055546 0 0 Z " fill="#080909" transform="translate(904,625)"/>
<path d="M0 0 C0.33 0 0.66 0 1 0 C1 17.49 1 34.98 1 53 C2.32 53 3.64 53 5 53 C5 36.5 5 20 5 3 C5.33 3 5.66 3 6 3 C6.33 20.16 6.66 37.32 7 55 C4.69 55 2.38 55 0 55 C0 36.85 0 18.7 0 0 Z " fill="#000100" transform="translate(889,582)"/>
<path d="M0 0 C3.82622743 1.5588334 6.25147379 3.95433582 9 7 C10.09506492 10.28519475 10.09960608 12.73663415 10.0625 16.1875 C10.05347656 17.27417969 10.04445313 18.36085938 10.03515625 19.48046875 C10.02355469 20.31191406 10.01195312 21.14335938 10 22 C8.79371992 19.66785852 7.8345262 17.50357861 7 15 C6.34 16.98 5.68 18.96 5 21 C4.01 20.34 3.02 19.68 2 19 C1.55859375 16.03125 1.55859375 16.03125 1.4375 12.5 C1.53123222 7.70593045 1.53123222 7.70593045 -1 4 C-0.625 1.875 -0.625 1.875 0 0 Z " fill="#1C1D1C" transform="translate(658,601)"/>
<path d="M0 0 C0.66 0 1.32 0 2 0 C2.33 16.83 2.66 33.66 3 51 C2.01 51 1.02 51 0 51 C0 34.17 0 17.34 0 0 Z " fill="#141413" transform="translate(557,584)"/>
<path d="M0 0 C0.99 0 1.98 0 3 0 C3 1.65 3 3.3 3 5 C2.34 5 1.68 5 1 5 C1.515625 5.53625 2.03125 6.0725 2.5625 6.625 C4 9 4 9 3.75 12.125 C3 15 3 15 2 17 C-0.64 17 -3.28 17 -6 17 C-4.13236819 11.27789404 -2.14710968 5.62338249 0 0 Z " fill="#171717" transform="translate(486,620)"/>
<path d="M0 0 C0.33 0 0.66 0 1 0 C1 10.89 1 21.78 1 33 C2.32 33 3.64 33 5 33 C4.98952637 32.34926514 4.97905273 31.69853027 4.96826172 31.02807617 C4.92670165 28.0812567 4.90067392 25.13449889 4.875 22.1875 C4.85824219 21.16333984 4.84148438 20.13917969 4.82421875 19.08398438 C4.81777344 18.10107422 4.81132813 17.11816406 4.8046875 16.10546875 C4.79421387 15.19949951 4.78374023 14.29353027 4.77294922 13.36010742 C5 11 5 11 7 8 C7 16.91 7 25.82 7 35 C4.69 35 2.38 35 0 35 C0 23.45 0 11.9 0 0 Z " fill="#020303" transform="translate(720,602)"/>
<path d="M0 0 C1.98 0.99 1.98 0.99 4 2 C3.67 15.53 3.34 29.06 3 43 C2.01 43 1.02 43 0 43 C0 28.81 0 14.62 0 0 Z " fill="#D4D3D3" transform="translate(830,514)"/>
<path d="M0 0 C1.32 0 2.64 0 4 0 C4.36789278 6.00891545 3.56376546 8.0178806 1 14 C7.27 14 13.54 14 20 14 C20 14.33 20 14.66 20 15 C13.07 15 6.14 15 -1 15 C-1 14.34 -1 13.68 -1 13 C-1.99 12.67 -2.98 12.34 -4 12 C-4.6875 9.9375 -4.6875 9.9375 -5 8 C-4.01 7.67 -3.02 7.34 -2 7 C-0.77030122 3.48809191 -0.77030122 3.48809191 0 0 Z " fill="#1B1C1C" transform="translate(495,602)"/>
<path d="M0 0 C4.34482759 1.34482759 4.34482759 1.34482759 6 3 C6.2982732 5.83359542 6.35602594 7.43785378 4.8125 9.875 C3 11 3 11 0.4375 10.8125 C-2 10 -2 10 -4 8 C-3.8125 5 -3.8125 5 -3 2 C-2.01 1.34 -1.02 0.68 0 0 Z " fill="#161718" transform="translate(948,627)"/>
<path d="M0 0 C0.99 0.103125 1.98 0.20625 3 0.3125 C5 3.3125 5 3.3125 4.6875 5.9375 C4 8.3125 4 8.3125 3 9.3125 C0.0625 9.5 0.0625 9.5 -3 9.3125 C-5 7.3125 -5 7.3125 -5.25 4.8125 C-4.86676958 0.9801958 -3.75087075 0.3907157 0 0 Z " fill="#0F1010" transform="translate(1325,627.6875)"/>
<path d="M0 0 C2.49609375 -0.36328125 2.49609375 -0.36328125 5.4375 -0.3125 C6.40558594 -0.30863281 7.37367187 -0.30476562 8.37109375 -0.30078125 C11 0 11 0 14 2 C13.67 3.65 13.34 5.3 13 7 C12.01 6.67 11.02 6.34 10 6 C8.27204648 5.93197033 6.54164635 5.91504355 4.8125 5.9375 C3.91144531 5.94652344 3.01039062 5.95554687 2.08203125 5.96484375 C1.05142578 5.98224609 1.05142578 5.98224609 0 6 C0 5.34 0 4.68 0 4 C-0.66 3.67 -1.32 3.34 -2 3 C-1.34 2.01 -0.68 1.02 0 0 Z " fill="#131413" transform="translate(1243,596)"/>
<path d="M0 0 C0.66 0 1.32 0 2 0 C2 0.66 2 1.32 2 2 C4.475 2.99 4.475 2.99 7 4 C5.4375 7 5.4375 7 3 10 C-0.75 10.375 -0.75 10.375 -4 10 C-3.52651586 5.8333396 -2.95303159 3.07115285 0 0 Z " fill="#171717" transform="translate(1237,599)"/>
<path d="M0 0 C0.639375 0.7425 1.27875 1.485 1.9375 2.25 C5.34158774 5.70327976 9.54650144 7.26323259 14 9 C13.67 10.65 13.34 12.3 13 14 C9.74704886 14.22179212 7.57202207 14.28601103 4.625 12.8125 C2.48246326 10.42274748 2.92359749 9.13250309 3 6 C1.56009377 3.82967524 1.56009377 3.82967524 0 2 C0 1.34 0 0.68 0 0 Z " fill="#0D0D0E" transform="translate(1282,623)"/>
<path d="M0 0 C0.33 0 0.66 0 1 0 C1.125 2.375 1.125 2.375 1 5 C0.34 5.66 -0.32 6.32 -1 7 C-1 8.32 -1 9.64 -1 11 C-4.08888522 13.05925681 -4.70935927 13.2390374 -8.1875 13.125 C-10.0746875 13.063125 -10.0746875 13.063125 -12 13 C-11.01 12.01 -10.02 11.02 -9 10 C-10.65 9.67 -12.3 9.34 -14 9 C-14 8.67 -14 8.34 -14 8 C-13.09507813 7.83564453 -13.09507813 7.83564453 -12.171875 7.66796875 C-6.01108738 6.54822439 -6.01108738 6.54822439 -1 3 C-0.67 2.01 -0.34 1.02 0 0 Z " fill="#0F1010" transform="translate(1257,624)"/>
<path d="M0 0 C7.26 0 14.52 0 22 0 C22 3.3 22 6.6 22 10 C21.01 10.495 21.01 10.495 20 11 C20 8.03 20 5.06 20 2 C13.4 2 6.8 2 0 2 C0 1.34 0 0.68 0 0 Z " fill="#060707" transform="translate(596,428)"/>
<path d="M0 0 C4.19058012 -0.1949107 7.25867056 0.02540946 11 2 C11.99 3.485 11.99 3.485 13 5 C8.27905982 7.51783476 3.22788162 7.60253551 -2 7 C-2.99 6.34 -3.98 5.68 -5 5 C-5 4.34 -5 3.68 -5 3 C-1.37 3 2.26 3 6 3 C4.02 2.34 2.04 1.68 0 1 C0 0.67 0 0.34 0 0 Z " fill="#212222" transform="translate(645,631)"/>
<path d="M0 0 C0.7734375 0.07605469 1.546875 0.15210938 2.34375 0.23046875 C4.84746175 0.9062895 5.85166485 1.85246044 7.5 3.8125 C6.84 5.4625 6.18 7.1125 5.5 8.8125 C5.17 8.1525 4.84 7.4925 4.5 6.8125 C2.83678518 6.46234951 1.16965451 6.13052943 -0.5 5.8125 C-1.49 5.1525 -2.48 4.4925 -3.5 3.8125 C-4.82567199 3.13072584 -6.15753688 2.46058564 -7.5 1.8125 C-4.24139091 -0.35990606 -3.67949197 -0.42314158 0 0 Z " fill="#181818" transform="translate(1168.5,615.1875)"/>
<path d="M0 0 C2.44503999 3.66755999 2.26831152 5.57478137 2.25 9.9375 C2.25515625 11.16339844 2.2603125 12.38929688 2.265625 13.65234375 C2.02083557 16.73741052 1.62728656 18.42346294 0 21 C-1.86715507 19.13284493 -1.13245683 16.49606175 -1.13671875 14.015625 C-1.13091797 12.83226562 -1.13091797 12.83226562 -1.125 11.625 C-1.12886719 10.84382812 -1.13273437 10.06265625 -1.13671875 9.2578125 C-1.13100915 5.9234054 -1.06131005 3.18393014 0 0 Z " fill="#262626" transform="translate(354,576)"/>
<path d="M0 0 C0.12375 0.57492187 0.2475 1.14984375 0.375 1.7421875 C1.01754487 4.06338085 1.89528036 5.98866717 3 8.125 C3.5259375 9.14980469 3.5259375 9.14980469 4.0625 10.1953125 C4.371875 10.79085937 4.68125 11.38640625 5 12 C5.33 12.66 5.66 13.32 6 14 C1.545 13.01 1.545 13.01 -3 12 C-2.67 9.36 -2.34 6.72 -2 4 C-2.66 4 -3.32 4 -4 4 C-4 3.34 -4 2.68 -4 2 C-2.68 1.34 -1.36 0.68 0 0 Z " fill="#111313" transform="translate(1236,618)"/>
<path d="M0 0 C2.31 0 4.62 0 7 0 C6.76228882 0.7748877 6.76228882 0.7748877 6.51977539 1.56542969 C5.84791934 4.71232894 5.77900563 7.73638152 5.68359375 10.953125 C5.66281265 11.61334656 5.64203156 12.27356812 5.62062073 12.95379639 C5.55549853 15.05243015 5.49641498 17.15118372 5.4375 19.25 C5.39427921 20.67709547 5.3506638 22.10417905 5.30664062 23.53125 C5.19985589 27.02070722 5.09848434 30.51029753 5 34 C4.67 34 4.34 34 4 34 C4 23.77 4 13.54 4 3 C3.01 3 2.02 3 1 3 C0.67 2.01 0.34 1.02 0 0 Z " fill="#232323" transform="translate(889,581)"/>
<path d="M0 0 C3 3 3 3 3.125 5.625 C3.08375 6.40875 3.0425 7.1925 3 8 C3.33 8.33 3.66 8.66 4 9 C4.07226502 10.85287502 4.0838122 12.70833878 4.0625 14.5625 C4.05347656 15.57441406 4.04445313 16.58632813 4.03515625 17.62890625 C4.02355469 18.41136719 4.01195312 19.19382812 4 20 C3.01 19.67 2.02 19.34 1 19 C0.67 12.73 0.34 6.46 0 0 Z " fill="#F4F4F3" transform="translate(1110,461)"/>
<path d="M0 0 C0.99 0 1.98 0 3 0 C3.05382106 2.62527189 3.09358313 5.24944713 3.125 7.875 C3.14175781 8.62136719 3.15851563 9.36773437 3.17578125 10.13671875 C3.1933959 12.09194461 3.10320189 14.04742021 3 16 C2.34 16.66 1.68 17.32 1 18 C0.04380267 14.00204108 -0.1039592 10.29196078 -0.0625 6.1875 C-0.05347656 5.02605469 -0.04445313 3.86460937 -0.03515625 2.66796875 C-0.02355469 1.78753906 -0.01195312 0.90710938 0 0 Z " fill="#1F1F1F" transform="translate(1124,467)"/>
<path d="M0 0 C1.1161656 3.71429898 1.3124195 7.39161508 1.5625 11.25 C1.64628906 12.51328125 1.73007813 13.7765625 1.81640625 15.078125 C1.87699219 16.04234375 1.93757813 17.0065625 2 18 C1.01 18 0.02 18 -1 18 C-1.88327729 14.9473937 -2.1633007 12.17494823 -2.1875 9 C-2.20167969 8.154375 -2.21585938 7.30875 -2.23046875 6.4375 C-1.98543096 3.84591384 -1.30584901 2.22975008 0 0 Z " fill="#1A1B1A" transform="translate(1088,608)"/>
<path d="M0 0 C0.33 0.99 0.66 1.98 1 3 C-0.98 3.99 -0.98 3.99 -3 5 C-3 5.33 -3 5.66 -3 6 C-6.3 6 -9.6 6 -13 6 C-13 5.01 -13 4.02 -13 3 C-11.02 2.67 -9.04 2.34 -7 2 C-7 1.34 -7 0.68 -7 0 C-4.3333581 -1.33332095 -2.83319697 -0.67102033 0 0 Z " fill="#1D1E1D" transform="translate(929,632)"/>
<path d="M0 0 C4.29 0.33 8.58 0.66 13 1 C12.01 2.32 11.02 3.64 10 5 C5.62144505 5.46913089 3.70415293 5.46943529 0 3 C0 2.01 0 1.02 0 0 Z " fill="#0C0C0B" transform="translate(999,630)"/>
<path d="M0 0 C1.32 0.99 2.64 1.98 4 3 C3.67 5.31 3.34 7.62 3 10 C1.68 10 0.36 10 -1 10 C-2.25556424 6.09380015 -1.81588958 3.63177916 0 0 Z " fill="#181818" transform="translate(514,599)"/>
<path d="M0 0 C0.99 0.33 1.98 0.66 3 1 C4.1875 3.5625 4.1875 3.5625 5 6 C1.32589215 7.17571451 -2.16929183 7.07366746 -6 7 C-6.33 6.01 -6.66 5.02 -7 4 C-5.35 4 -3.7 4 -2 4 C-2 3.34 -2 2.68 -2 2 C-1.34 2 -0.68 2 0 2 C0 1.34 0 0.68 0 0 Z " fill="#1B1C1C" transform="translate(1298,596)"/>
<path d="M0 0 C0.66 0.33 1.32 0.66 2 1 C2 1.66 2 2.32 2 3 C2.66 3.33 3.32 3.66 4 4 C3.67 5.32 3.34 6.64 3 8 C3.66 8.33 4.32 8.66 5 9 C3.35 9.33 1.7 9.66 0 10 C0 9.34 0 8.68 0 8 C-0.99 7.34 -1.98 6.68 -3 6 C-1.125 1.125 -1.125 1.125 0 0 Z " fill="#191A1A" transform="translate(911,608)"/>
<path d="M0 0 C1.32 0 2.64 0 4 0 C4 3.63 4 7.26 4 11 C2.66666667 11 1.33333333 11 0 11 C0 7.37 0 3.74 0 0 Z " fill="#151615" transform="translate(773,587)"/>
<path d="M0 0 C3.3 0 6.6 0 10 0 C10 0.66 10 1.32 10 2 C11.65 2.33 13.3 2.66 15 3 C11.38132441 4.2062252 8.07493749 4.10816918 4.3125 4.0625 C3.61060547 4.05798828 2.90871094 4.05347656 2.18554688 4.04882812 C0.45699462 4.03706927 -1.27151365 4.01913454 -3 4 C-3 3.34 -3 2.68 -3 2 C-2.01 2 -1.02 2 0 2 C0 1.34 0 0.68 0 0 Z " fill="#1C1D1C" transform="translate(634,445)"/>
<path d="M0 0 C0.33 0 0.66 0 1 0 C1.20086443 3.71599191 1.1519437 4.77208445 -1 8 C1.86724686 7.42655063 2.8614515 7.1385485 5 5 C4.67 6.65 4.34 8.3 4 10 C1.36 10 -1.28 10 -4 10 C-3.52449439 8.51965236 -3.04448784 7.04074979 -2.5625 5.5625 C-2.29566406 4.73878906 -2.02882813 3.91507813 -1.75390625 3.06640625 C-1 1 -1 1 0 0 Z " fill="#0E0E0E" transform="translate(484,627)"/>
<path d="M0 0 C1.98 0 3.96 0 6 0 C7.0625 2.375 7.0625 2.375 8 5 C7.67 5.66 7.34 6.32 7 7 C5.35 6.67 3.7 6.34 2 6 C1.34 4.02 0.68 2.04 0 0 Z " fill="#181919" transform="translate(904,626)"/>
<path d="M0 0 C0.94137255 2.82411765 1.11725382 4.52918032 1.09765625 7.44921875 C1.09443359 8.29677734 1.09121094 9.14433594 1.08789062 10.01757812 C1.07951172 10.89865234 1.07113281 11.77972656 1.0625 12.6875 C1.05798828 13.58017578 1.05347656 14.47285156 1.04882812 15.39257812 C1.03704983 17.59511987 1.02060164 19.79752599 1 22 C0.67 22 0.34 22 0 22 C-0.33 16.72 -0.66 11.44 -1 6 C-1.33 6 -1.66 6 -2 6 C-2 4.35 -2 2.7 -2 1 C-4.31 1 -6.62 1 -9 1 C-9 0.67 -9 0.34 -9 0 C-2.25 -1.125 -2.25 -1.125 0 0 Z " fill="#1A1B1B" transform="translate(773,603)"/>
<path d="M0 0 C1.18851563 0.19464844 2.37703125 0.38929688 3.6015625 0.58984375 C4.97441406 0.82380859 4.97441406 0.82380859 6.375 1.0625 C4.46184881 3.63869276 3.4733686 4.04645232 0.23828125 4.57421875 C-0.93347656 4.63222656 -2.10523438 4.69023438 -3.3125 4.75 C-4.49199219 4.81574219 -5.67148437 4.88148438 -6.88671875 4.94921875 C-8.24216797 5.00529297 -8.24216797 5.00529297 -9.625 5.0625 C-8.965 4.7325 -8.305 4.4025 -7.625 4.0625 C-7.955 2.7425 -8.285 1.4225 -8.625 0.0625 C-5.61666904 -1.44166548 -3.27538422 -0.54589737 0 0 Z " fill="#282928" transform="translate(1005.625,583.9375)"/>
<path d="M0 0 C0.99 0 1.98 0 3 0 C3.33 0.99 3.66 1.98 4 3 C3.04701223 4.36733028 2.04625409 5.70264493 1 7 C0.77390663 9.12364481 0.77390663 9.12364481 2.5 10.625 C2.995 11.07875 3.49 11.5325 4 12 C1.525 11.01 1.525 11.01 -1 10 C-1.33 7.69 -1.66 5.38 -2 3 C-1.34 3 -0.68 3 0 3 C0 2.01 0 1.02 0 0 Z " fill="#0E0E0F" transform="translate(908,605)"/>
<path d="M0 0 C1.65 0 3.3 0 5 0 C4.67 1.32 4.34 2.64 4 4 C5.32 4.33 6.64 4.66 8 5 C7.67 5.66 7.34 6.32 7 7 C4.36 7 1.72 7 -1 7 C-2 4 -2 4 -1.0625 1.8125 C-0.5365625 0.9153125 -0.5365625 0.9153125 0 0 Z " fill="#1E1E1E" transform="translate(1293,631)"/>
<path d="M0 0 C0.33 0.66 0.66 1.32 1 2 C2.32 1.34 3.64 0.68 5 0 C5.33 1.98 5.66 3.96 6 6 C3.69 6.33 1.38 6.66 -1 7 C-1.33 6.34 -1.66 5.68 -2 5 C-1.0625 2.375 -1.0625 2.375 0 0 Z " fill="#161716" transform="translate(615,604)"/>
<path d="M0 0 C0.66 0.33 1.32 0.66 2 1 C1.01 3.31 0.02 5.62 -1 8 C0.32 8 1.64 8 3 8 C3.66 6.68 4.32 5.36 5 4 C4.67 5.98 4.34 7.96 4 10 C1.36 10 -1.28 10 -4 10 C-2.68 6.7 -1.36 3.4 0 0 Z " fill="#0A0B0B" transform="translate(599,644)"/>
<path d="M0 0 C2.8203125 0.2421875 2.8203125 0.2421875 6.125 0.875 C7.22070312 1.07867188 8.31640625 1.28234375 9.4453125 1.4921875 C10.28835938 1.65976562 11.13140625 1.82734375 12 2 C12 2.33 12 2.66 12 3 C10.02 3.33 8.04 3.66 6 4 C6 4.33 6 4.66 6 5 C3.69 5 1.38 5 -1 5 C-1.33 4.01 -1.66 3.02 -2 2 C-1.34 1.34 -0.68 0.68 0 0 Z " fill="#121312" transform="translate(914,632)"/>
<path d="M0 0 C0.598125 0.226875 1.19625 0.45375 1.8125 0.6875 C1.4825 1.3475 1.1525 2.0075 0.8125 2.6875 C2.4625 3.0175 4.1125 3.3475 5.8125 3.6875 C5.8125 4.0175 5.8125 4.3475 5.8125 4.6875 C4.87277344 4.88666016 4.87277344 4.88666016 3.9140625 5.08984375 C2.68816406 5.35474609 2.68816406 5.35474609 1.4375 5.625 C0.62539062 5.79902344 -0.18671875 5.97304688 -1.0234375 6.15234375 C-3.216963 6.61080693 -3.216963 6.61080693 -5.1875 7.6875 C-5.41803497 4.84423536 -5.54653101 3.22604651 -3.9375 0.8125 C-2.1875 -0.3125 -2.1875 -0.3125 0 0 Z " fill="#1A1B1A" transform="translate(1102.1875,596.3125)"/>
<path d="M0 0 C0.53625 0.268125 1.0725 0.53625 1.625 0.8125 C-0.58513545 3.02263545 -2.87469 4.9372675 -5.375 6.8125 C-6.035 6.8125 -6.695 6.8125 -7.375 6.8125 C-7.705 7.8025 -8.035 8.7925 -8.375 9.8125 C-8.75 7.625 -8.75 7.625 -8.375 4.8125 C-3.50691489 -0.2768617 -3.50691489 -0.2768617 0 0 Z " fill="#101010" transform="translate(914.375,597.1875)"/>
<path d="M0 0 C1.06671952 3.20015856 0.94845472 4.88544294 0.5625 8.1875 C0.46066406 9.08855469 0.35882812 9.98960937 0.25390625 10.91796875 C0.12822266 11.94857422 0.12822266 11.94857422 0 13 C-0.66 12.34 -1.32 11.68 -2 11 C-2.66 11.66 -3.32 12.32 -4 13 C-4 10.36 -4 7.72 -4 5 C-3.01 5.495 -3.01 5.495 -2 6 C-1.34 4.02 -0.68 2.04 0 0 Z " fill="#0B0C0B" transform="translate(1282,609)"/>
<path d="M0 0 C2 2 2 2 2.23046875 3.875 C2.21628906 4.57625 2.20210937 5.2775 2.1875 6 C2.18105469 6.70125 2.17460938 7.4025 2.16796875 8.125 C2 10 2 10 1 12 C0.34 12 -0.32 12 -1 12 C-1.02698189 10.37509046 -1.04638757 8.75005367 -1.0625 7.125 C-1.07410156 6.22007812 -1.08570313 5.31515625 -1.09765625 4.3828125 C-1 2 -1 2 0 0 Z " fill="#222222" transform="translate(1033,603)"/>
<path d="M0 0 C0.495 0.144375 0.99 0.28875 1.5 0.4375 C4.97752922 1.21994407 8.45955123 1.58694764 12 2 C11.01 3.485 11.01 3.485 10 5 C7.8359375 5.29296875 7.8359375 5.29296875 5.375 5.1875 C4.55773437 5.16042969 3.74046875 5.13335938 2.8984375 5.10546875 C1.95871094 5.05326172 1.95871094 5.05326172 1 5 C0.67 3.35 0.34 1.7 0 0 Z " fill="#1F1F20" transform="translate(807,596)"/>
<path d="M0 0 C0.33 0 0.66 0 1 0 C1 4.95 1 9.9 1 15 C0.01 14.67 -0.98 14.34 -2 14 C-2.05389087 12.04196493 -2.09274217 10.08351091 -2.125 8.125 C-2.14820313 7.03445313 -2.17140625 5.94390625 -2.1953125 4.8203125 C-2 2 -2 2 0 0 Z " fill="#D8D8D8" transform="translate(204,576)"/>
<path d="M0 0 C-3.26613695 1.91302307 -5.99445248 2.35674661 -9.75 2.625 C-10.73484375 2.69976562 -11.7196875 2.77453125 -12.734375 2.8515625 C-13.48203125 2.90054687 -14.2296875 2.94953125 -15 3 C-14.67 2.01 -14.34 1.02 -14 0 C-9.02936879 -0.91297308 -4.97063121 -0.91297308 0 0 Z " fill="#1E201F" transform="translate(761,465)"/>
<path d="M0 0 C3.3 0 6.6 0 10 0 C9.67 0.99 9.34 1.98 9 3 C6.03 3 3.06 3 0 3 C0 2.01 0 1.02 0 0 Z " fill="#1F1F1F" transform="translate(1101,635)"/>
<path d="M0 0 C0.33 0 0.66 0 1 0 C1 4.62 1 9.24 1 14 C0.01 13.67 -0.98 13.34 -2 13 C-2.05391993 11.20866022 -2.09275571 9.41686101 -2.125 7.625 C-2.14820313 6.62726563 -2.17140625 5.62953125 -2.1953125 4.6015625 C-2 2 -2 2 0 0 Z " fill="#202221" transform="translate(482,424)"/>
<path d="M0 0 C0.66 0 1.32 0 2 0 C2 0.99 2 1.98 2 3 C1.01 3 0.02 3 -1 3 C-0.67 2.01 -0.34 1.02 0 0 Z M-3 3 C-2.34 3.33 -1.68 3.66 -1 4 C0.9959722 4.67863055 2.99568551 5.34641919 5 6 C5 6.33 5 6.66 5 7 C3.329375 7.2165625 3.329375 7.2165625 1.625 7.4375 C-1.82142047 7.78372035 -1.82142047 7.78372035 -4 9 C-3.67 7.02 -3.34 5.04 -3 3 Z " fill="#252626" transform="translate(1204,596)"/>
<path d="M0 0 C1.32 0 2.64 0 4 0 C4 0.99 4 1.98 4 3 C3.01 3.66 2.02 4.32 1 5 C1.66 5.66 2.32 6.32 3 7 C1.02 7.33 -0.96 7.66 -3 8 C-2.25 3.25 -2.25 3.25 0 1 C0 0.67 0 0.34 0 0 Z " fill="#1E1E1E" transform="translate(642,596)"/>
<path d="M0 0 C0.33 0.66 0.66 1.32 1 2 C-2.33333333 5.33333333 -5.66666667 8.66666667 -9 12 C-9.66 11.67 -10.32 11.34 -11 11 C-7.37 7.37 -3.74 3.74 0 0 Z " fill="#F4F5F4" transform="translate(415,403)"/>
<path d="M0 0 C0.99 0 1.98 0 3 0 C3 3.3 3 6.6 3 10 C0 7 0 7 -0.1875 3.3125 C-0.125625 2.219375 -0.06375 1.12625 0 0 Z " fill="#212222" transform="translate(1231,622)"/>
<path d="M0 0 C0.99 0 1.98 0 3 0 C3 2.97 3 5.94 3 9 C2.01 9 1.02 9 0 9 C0 6.03 0 3.06 0 0 Z " fill="#EAEBEB" transform="translate(847,612)"/>
<path d="M0 0 C4.29 0 8.58 0 13 0 C9.42368771 2.38420819 7.01689261 3.13142447 2.8125 3.0625 C0.9253125 3.0315625 0.9253125 3.0315625 -1 3 C-0.67 2.01 -0.34 1.02 0 0 Z " fill="#1D1E1D" transform="translate(1244,615)"/>
<path d="M0 0 C0.33 0.99 0.66 1.98 1 3 C-2 5 -2 5 -6 5 C-6.33 4.01 -6.66 3.02 -7 2 C-4 0 -4 0 0 0 Z " fill="#171818" transform="translate(1178,630)"/>
<path d="M0 0 C0.33 0.66 0.66 1.32 1 2 C1.66 2.33 2.32 2.66 3 3 C2.67 3.66 2.34 4.32 2 5 C2.39938767 7.09821215 2.39938767 7.09821215 3 9 C1.68 8.67 0.36 8.34 -1 8 C-1.93065133 5.39417629 -2.14917407 4.35801776 -1.0625 1.75 C-0.711875 1.1725 -0.36125 0.595 0 0 Z " fill="#171918" transform="translate(778,628)"/>
<path d="M0 0 C0.66 0 1.32 0 2 0 C2.66 1.98 3.32 3.96 4 6 C1.36 6 -1.28 6 -4 6 C-3.67 5.01 -3.34 4.02 -3 3 C-1.68 3 -0.36 3 1 3 C0.67 2.01 0.34 1.02 0 0 Z " fill="#060606" transform="translate(527,631)"/>
<path d="M0 0 C1.32 0.33 2.64 0.66 4 1 C3.625 3.4375 3.625 3.4375 3 6 C2.01 6.495 2.01 6.495 1 7 C-1.125 6.0625 -1.125 6.0625 -3 5 C-1.68 5 -0.36 5 1 5 C0.67 3.35 0.34 1.7 0 0 Z " fill="#1B1B1C" transform="translate(1326,630)"/>
<path d="M0 0 C2.31 0 4.62 0 7 0 C6.67 1.65 6.34 3.3 6 5 C5.01 5 4.02 5 3 5 C3 4.34 3 3.68 3 3 C2.34 2.67 1.68 2.34 1 2 C0.67 1.34 0.34 0.68 0 0 Z " fill="#222322" transform="translate(1117,624)"/>
<path d="M0 0 C3 1 3 1 5 4 C5 4.99 5 5.98 5 7 C3.68 7 2.36 7 1 7 C1.33 5.68 1.66 4.36 2 3 C0.68 3 -0.64 3 -2 3 C-1 1 -1 1 0 0 Z " fill="#181919" transform="translate(1173,600)"/>
<path d="M0 0 C1.43861294 0.08746284 2.87597508 0.19565348 4.3125 0.3125 C5.11300781 0.37050781 5.91351563 0.42851563 6.73828125 0.48828125 C9.36272334 1.08206694 10.30820672 1.95780294 12 4 C8.35839192 5.21386936 7.66834531 4.6674695 4.3125 3.0625 C3.10013672 2.49208984 3.10013672 2.49208984 1.86328125 1.91015625 C1.24839844 1.60980469 0.63351562 1.30945313 0 1 C0 0.67 0 0.34 0 0 Z " fill="#0F0F0F" transform="translate(270,575)"/>
<path d="M0 0 C1.32 0 2.64 0 4 0 C4.33 0.99 4.66 1.98 5 3 C4.01 3.33 3.02 3.66 2 4 C2 4.66 2 5.32 2 6 C1.34 6 0.68 6 0 6 C0 5.34 0 4.68 0 4 C-0.66 3.67 -1.32 3.34 -2 3 C-1.34 2.01 -0.68 1.02 0 0 Z " fill="#1A1B1A" transform="translate(1243,596)"/>
<path d="M0 0 C0.99 0.33 1.98 0.66 3 1 C4.1875 3.5625 4.1875 3.5625 5 6 C3.35 6 1.7 6 0 6 C-1.125 2.25 -1.125 2.25 0 0 Z " fill="#0B0C0C" transform="translate(1298,631)"/>
<path d="M0 0 C2.31 0 4.62 0 7 0 C6.2884375 0.6496875 6.2884375 0.6496875 5.5625 1.3125 C3.76313043 3.02309613 3.76313043 3.02309613 3 6 C2.34 6 1.68 6 1 6 C0.67 4.02 0.34 2.04 0 0 Z " fill="#3C3C3D" transform="translate(1148,624)"/>
<path d="M0 0 C0.66 0.33 1.32 0.66 2 1 C0.80100302 4.0831351 -0.47700477 7.06279492 -2 10 C-2.66 9.67 -3.32 9.34 -4 9 C-3.35455571 5.51460083 -1.89865603 2.97180943 0 0 Z " fill="#1B1C1C" transform="translate(732,597)"/>
<path d="M0 0 C0.66 0.33 1.32 0.66 2 1 C0.68139111 5.61513112 -1.21355437 9.09897612 -4 13 C-4.33 12.34 -4.66 11.68 -5 11 C-4.00390625 8.3984375 -4.00390625 8.3984375 -2.5625 5.375 C-2.08941406 4.37210937 -1.61632812 3.36921875 -1.12890625 2.3359375 C-0.75636719 1.56507813 -0.38382812 0.79421875 0 0 Z " fill="#E8E9E9" transform="translate(346,370)"/>
<path d="M0 0 C1.32 0.99 2.64 1.98 4 3 C0.7 3 -2.6 3 -6 3 C-6.33 2.01 -6.66 1.02 -7 0 C-4.25700998 -1.37149501 -2.91518346 -0.83290956 0 0 Z " fill="#1B1B1C" transform="translate(1061,598)"/>
<path d="M0 0 C0.99 0.33 1.98 0.66 3 1 C3.25 7.625 3.25 7.625 1 11 C0.01 10.67 -0.98 10.34 -2 10 C-1.505 9.608125 -1.01 9.21625 -0.5 8.8125 C1.23551297 7.05967762 1.23551297 7.05967762 1.25 4.4375 C1.14460969 1.99453406 1.14460969 1.99453406 0 0 Z " fill="#040505" transform="translate(928,621)"/>
<path d="M0 0 C2.31 0 4.62 0 7 0 C6.67 0.99 6.34 1.98 6 3 C4.02 3 2.04 3 0 3 C0 2.01 0 1.02 0 0 Z " fill="#1D1E1E" transform="translate(765,599)"/>
<path d="M0 0 C1.32 0.33 2.64 0.66 4 1 C4 1.66 4 2.32 4 3 C0.32589215 4.17571451 -3.16929183 4.07366746 -7 4 C-7 3.67 -7 3.34 -7 3 C-5.5459375 2.814375 -5.5459375 2.814375 -4.0625 2.625 C-2.5465625 2.315625 -2.5465625 2.315625 -1 2 C-0.67 1.34 -0.34 0.68 0 0 Z " fill="#2E2F2E" transform="translate(1299,599)"/>
<path d="M0 0 C1.98 0 3.96 0 6 0 C5.67 0.99 5.34 1.98 5 3 C3.0625 3.75 3.0625 3.75 1 4 C0.34 3.67 -0.32 3.34 -1 3 C-0.67 2.01 -0.34 1.02 0 0 Z " fill="#151515" transform="translate(618,598)"/>
<path d="M0 0 C0.66 0.66 1.32 1.32 2 2 C1.01 4.31 0.02 6.62 -1 9 C-2.1875 7.3125 -2.1875 7.3125 -3 5 C-1.625 2.25 -1.625 2.25 0 0 Z " fill="#1B1B1B" transform="translate(307,460)"/>
<path d="M0 0 C0.66 0 1.32 0 2 0 C3.52448631 2.9826906 4.93940067 5.818202 6 9 C5.01 9 4.02 9 3 9 C2.01 6.03 1.02 3.06 0 0 Z " fill="#EBECEB" transform="translate(780,442)"/>
<path d="M0 0 C0.66 0.33 1.32 0.66 2 1 C1.319375 1.61875 1.319375 1.61875 0.625 2.25 C-1.05950374 4.06408095 -1.99265971 5.75285627 -3 8 C-3.99 7.67 -4.98 7.34 -6 7 C-4.02 4.69 -2.04 2.38 0 0 Z " fill="#2A2A2A" transform="translate(364,300)"/>
<path d="M0 0 C-0.33 1.98 -0.66 3.96 -1 6 C-1.33 6 -1.66 6 -2 6 C-2 4.35 -2 2.7 -2 1 C-4.31 1 -6.62 1 -9 1 C-9 0.67 -9 0.34 -9 0 C-2.25 -1.125 -2.25 -1.125 0 0 Z " fill="#333434" transform="translate(773,603)"/>
<path d="M0 0 C0.99 0.33 1.98 0.66 3 1 C3.33 3.31 3.66 5.62 4 8 C3.34 8 2.68 8 2 8 C0.74335022 5.09399739 0 3.20395416 0 0 Z " fill="#EDEDED" transform="translate(510,582)"/>
<path d="M0 0 C0.33 0 0.66 0 1 0 C1.33 3.63 1.66 7.26 2 11 C0.68 11.33 -0.64 11.66 -2 12 C-1.34 8.04 -0.68 4.08 0 0 Z " fill="#454545" transform="translate(872,614)"/>
<path d="M0 0 C0.33 0 0.66 0 1 0 C1 2.31 1 4.62 1 7 C0.34 7 -0.32 7 -1 7 C-1.33 7.66 -1.66 8.32 -2 9 C-3 6 -3 6 -2.125 3.9375 C-1.75375 3.298125 -1.3825 2.65875 -1 2 C-0.67 1.34 -0.34 0.68 0 0 Z " fill="#DADADB" transform="translate(839,614)"/>
<path d="M0 0 C2 1 2 1 3.1875 3.875 C4 7 4 7 3 10 C1.11608215 6.73454239 0.50712033 3.71888239 0 0 Z " fill="#EDEDED" transform="translate(351,559)"/>
</svg>
